<svg width="16" height="16" viewBox="0 0 16 16" fill="none" xmlns="http://www.w3.org/2000/svg">
<path d="M4.15132 7.33331H11.8493C12.424 7.33331 12.7293 6.65332 12.3473 6.22332L8.49865 1.89331C8.43622 1.82285 8.35955 1.76644 8.2737 1.7278C8.18786 1.68917 8.09479 1.66919 8.00065 1.66919C7.90651 1.66919 7.81344 1.68917 7.72759 1.7278C7.64175 1.76644 7.56508 1.82285 7.50265 1.89331L3.65265 6.22332C3.27065 6.65332 3.57598 7.33331 4.15132 7.33331ZM7.50198 14.106C7.56441 14.1764 7.64108 14.2329 7.72693 14.2715C7.81277 14.3101 7.90584 14.3301 7.99998 14.3301C8.09412 14.3301 8.18719 14.3101 8.27304 14.2715C8.35888 14.2329 8.43555 14.1764 8.49798 14.106L12.3466 9.77598C12.7293 9.34665 12.424 8.66665 11.8486 8.66665H4.15132C3.57665 8.66665 3.27132 9.34665 3.65332 9.77665L7.50198 14.106Z" fill="white"/>
</svg>
