<svg width="552" height="455" viewBox="0 0 552 455" fill="none" xmlns="http://www.w3.org/2000/svg">
<path d="M411.427 95.9189H350.613V184.065H411.427V95.9189Z" fill="#E0E0E0"/>
<path d="M408.383 95.9189H347.57V184.065H408.383V95.9189Z" fill="#F5F5F5"/>
<path d="M400.829 105.463H355.124V174.522H400.829V105.463Z" fill="white"/>
<path d="M400.816 174.51C400.816 174.51 400.816 174.4 400.816 174.182V173.2C400.816 172.327 400.816 171.066 400.816 169.416C400.816 166.106 400.816 161.28 400.816 155.18C400.816 143.054 400.816 125.762 400.744 105.462L400.889 105.608H355.197L355.367 105.438C355.367 131.485 355.367 155.508 355.367 174.485L355.234 174.364H388.508H397.688H400.816H400.016H397.591H388.423H355.076H354.943V174.231C354.943 155.253 354.943 131.231 354.943 105.183V105.014H400.962V105.171C400.962 125.519 400.901 142.763 400.889 154.998C400.889 161.061 400.889 165.912 400.889 169.186C400.889 170.823 400.889 172.084 400.889 172.945V173.903C400.886 174.107 400.862 174.311 400.816 174.51Z" fill="#E0E0E0"/>
<path d="M408.553 95.9189C408.241 96.4756 407.88 97.0032 407.474 97.4954C406.77 98.4291 405.764 99.7145 404.624 101.133C403.484 102.552 402.405 103.753 401.617 104.626C401.207 105.119 400.756 105.577 400.271 105.996C400.637 105.461 401.042 104.955 401.483 104.48L404.418 100.927L407.34 97.3741C407.701 96.8543 408.107 96.3674 408.553 95.9189Z" fill="#E0E0E0"/>
<path d="M401.059 174.292C403.337 177.902 406.013 181.246 409.038 184.259L401.059 174.292Z" fill="white"/>
<path d="M409.038 184.259C408.53 183.907 408.063 183.5 407.644 183.046C406.584 181.966 405.58 180.833 404.636 179.651C403.691 178.486 402.809 177.272 401.993 176.013C401.624 175.502 401.311 174.953 401.059 174.376C401.478 174.843 401.856 175.346 402.187 175.88C402.854 176.825 403.799 178.111 404.891 179.518C405.982 180.924 407.049 182.1 407.813 182.961C408.253 183.363 408.662 183.797 409.038 184.259Z" fill="#E0E0E0"/>
<path d="M347.57 183.992L355.525 174.17L347.57 183.992Z" fill="white"/>
<path d="M355.525 174.17C354.331 175.905 353.048 177.577 351.681 179.178C349.474 181.894 347.63 184.029 347.57 184.029C348.761 182.288 350.044 180.612 351.414 179.008C352.702 177.327 354.074 175.712 355.525 174.17Z" fill="#E0E0E0"/>
<path d="M347.57 95.9189C348.945 97.3851 350.237 98.9275 351.438 100.539C352.734 102.092 353.948 103.711 355.076 105.39C353.701 103.923 352.409 102.381 351.208 100.769C349.906 99.2215 348.691 97.6022 347.57 95.9189Z" fill="#E0E0E0"/>
<path d="M386.592 119.48H371.289V162.929H386.592V119.48Z" fill="#E0E0E0"/>
<path d="M290.467 342.544C287.701 343.457 285.148 344.919 282.96 346.842C280.772 348.765 278.995 351.11 277.734 353.736C275.249 359.011 274.005 364.785 274.097 370.616C273.951 381.857 278.814 393.838 284.464 403.551C294.832 396.591 298.786 382.67 300.35 375.479C302.775 364.104 300.35 342.071 290.479 342.544" fill="#F5F5F5"/>
<path d="M271.295 420.48C272.338 417.39 272.543 414.08 271.892 410.885C271.24 407.69 269.754 404.725 267.585 402.291C265.382 399.899 262.724 397.971 259.768 396.617C256.812 395.264 253.615 394.513 250.365 394.408C247.37 394.251 244.048 394.712 242.035 396.943C241.158 398.043 240.592 399.357 240.394 400.749C240.195 402.141 240.373 403.561 240.907 404.861C242.013 407.456 243.787 409.711 246.048 411.397C253.482 417.461 261.813 422.032 271.295 420.456" fill="#F5F5F5"/>
<path d="M279.068 447.497C279.208 445.018 279.094 442.532 278.729 440.076C278.433 437.376 277.814 434.722 276.886 432.169C275.847 429.031 274.603 425.965 273.163 422.99C270.507 417.525 266.541 412.801 261.619 409.239C260.096 408.198 258.47 407.317 256.768 406.607C256.161 406.315 255.509 406.127 254.84 406.049C254.743 406.255 257.447 407.262 261.049 409.954C265.652 413.622 269.38 418.27 271.962 423.56C273.374 426.488 274.625 429.492 275.709 432.557C276.658 435.026 277.349 437.586 277.771 440.197C278.523 444.696 278.874 447.521 279.068 447.497Z" fill="#E0E0E0"/>
<path d="M290.843 359.521C290.454 360.706 290.17 361.923 289.994 363.158C289.533 365.584 288.915 368.979 288.187 373.235C286.72 381.724 284.84 393.535 283.07 406.607C281.3 419.679 280.051 431.551 279.323 440.173C278.959 444.477 278.705 447.958 278.571 450.371C278.427 451.619 278.403 452.877 278.498 454.13C278.792 452.912 278.978 451.67 279.056 450.419C279.359 447.788 279.747 444.356 280.269 440.257C281.227 431.672 282.621 419.825 284.38 406.777C286.138 393.729 287.884 382.136 289.121 373.369C289.703 369.27 290.176 365.85 290.54 363.243C290.748 362.013 290.849 360.768 290.843 359.521Z" fill="#E0E0E0"/>
<path d="M284.828 426.519C287.693 420.283 292.002 414.82 297.398 410.581C302.794 406.343 309.123 403.451 315.859 402.145C319.279 401.514 323.499 401.636 325.379 404.57C327.258 407.505 325.609 411.409 323.535 414.271C319.098 420.041 313.052 424.369 306.16 426.71C299.268 429.051 291.838 429.301 284.804 427.428" fill="#F5F5F5"/>
<path d="M311.082 411.179C310.421 411.21 309.77 411.349 309.154 411.591C307.941 411.931 306.183 412.525 304.061 413.313C298.448 415.352 293.259 418.411 288.757 422.335C286.33 424.577 284.282 427.198 282.694 430.096C281.424 432.474 280.489 435.016 279.917 437.65C279.528 439.413 279.3 441.207 279.238 443.01C279.126 443.664 279.126 444.333 279.238 444.987C279.493 444.987 279.59 442.186 280.717 437.869C282.199 432.247 285.273 427.173 289.57 423.256C293.983 419.447 298.978 416.369 304.364 414.138C308.547 412.331 311.179 411.373 311.082 411.179Z" fill="#E0E0E0"/>
<path d="M521.582 130.042C521.582 130.042 508.874 126.295 503.732 155.508C498.591 184.72 498.178 200.812 498.178 200.812C498.178 200.812 496.396 207.154 491.691 204.801C486.986 202.449 478.995 194.166 473.356 197.828C467.499 201.624 467.584 209.433 472.034 219.571C476.485 229.709 485.373 252.312 486.198 254.349C487.022 256.386 486.731 259.745 483.275 258.666C479.819 257.587 457.81 244.321 452.111 255.234C446.411 266.148 463.461 292.292 465.268 295.251C467.075 298.21 466.868 299.689 465.607 300.926C464.346 302.163 457.361 297.009 450.934 293.493C444.507 289.976 436.443 287.03 433.703 293.553C430.962 300.077 436.128 322.075 467.438 350.826L482.79 363.195L501.38 356.356C540.269 339.282 552.31 320.171 551.849 313.101C551.389 306.031 542.779 306.165 535.564 307.377C528.349 308.59 520.066 311.246 519.266 309.657C518.466 308.069 518.781 306.553 521.437 304.394C524.092 302.236 548.697 282.931 546.841 270.841C544.986 258.751 519.836 264.171 516.21 264.074C512.585 263.977 513.458 260.691 514.84 259.054C516.222 257.417 532.023 238.9 539.517 230.739C547.011 222.578 549.618 215.23 545.313 209.736C541.166 204.437 530.907 209.736 525.705 210.391C520.503 211.046 520.855 204.522 520.855 204.522C520.855 204.522 525.705 189.17 530.277 159.849C534.848 130.527 521.303 130.018 521.303 130.018" fill="#F5F5F5"/>
<path d="M516.938 156.223C516.938 156.223 516.938 156.429 516.877 156.842L516.623 158.648C516.38 160.261 516.028 162.602 515.592 165.585C514.682 171.648 513.312 180.33 511.578 191.05C508.11 212.574 503.09 242.259 497.402 275.037C491.715 307.814 486.61 337.487 483.033 358.987C481.25 369.719 479.807 378.389 478.813 384.452C478.316 387.435 477.928 389.764 477.6 391.376C477.467 392.14 477.37 392.735 477.285 393.171C477.2 393.608 477.151 393.777 477.151 393.777C477.151 393.777 477.151 393.571 477.224 393.159C477.297 392.747 477.37 392.128 477.467 391.352C477.709 389.739 478.061 387.399 478.497 384.416C479.407 378.353 480.777 369.67 482.511 358.951C485.979 337.426 491 307.729 496.699 274.952C502.398 242.174 507.528 212.513 511.166 190.965C512.936 180.233 514.379 171.563 515.386 165.5L516.538 158.576L516.853 156.781C516.872 156.594 516.9 156.407 516.938 156.223Z" fill="#E0E0E0"/>
<path d="M484.076 209.906C484.408 210.248 484.701 210.627 484.949 211.034C485.482 211.786 486.161 212.889 487.107 214.26C488.89 217.012 491.254 220.868 493.777 225.173L500.191 236.245L502.144 239.579C502.421 239.951 502.645 240.359 502.811 240.792C502.473 240.456 502.176 240.081 501.926 239.676C501.404 238.925 500.713 237.821 499.791 236.439C498.033 233.662 495.717 229.769 493.195 225.464L486.707 214.441C485.931 213.132 485.264 212.016 484.73 211.107C484.46 210.737 484.24 210.333 484.076 209.906Z" fill="#E0E0E0"/>
<path d="M504.654 240.683C504.545 240.525 512.293 235.311 521.958 229.017C531.623 222.724 539.517 217.764 539.626 217.909C539.735 218.055 531.975 223.293 522.322 229.575C512.669 235.856 504.751 240.816 504.654 240.683Z" fill="#E0E0E0"/>
<path d="M493.668 290.595C494.105 290.379 494.564 290.213 495.038 290.098L498.821 288.946C502.01 287.964 506.424 286.606 511.226 284.92C516.028 283.234 520.345 281.597 523.462 280.373L527.1 278.93C527.542 278.714 528.011 278.559 528.494 278.469C528.092 278.745 527.661 278.976 527.209 279.16C526.36 279.572 525.135 280.142 523.571 280.809C520.515 282.143 516.222 283.877 511.445 285.551C506.667 287.224 502.18 288.534 498.955 289.395C497.33 289.819 496.02 290.146 495.098 290.353C494.633 290.49 494.152 290.572 493.668 290.595Z" fill="#E0E0E0"/>
<path d="M468.93 266.876C469.318 267.106 469.676 267.383 469.997 267.701C470.652 268.258 471.598 269.083 472.737 270.126C475.041 272.199 478.182 275.085 481.626 278.299C485.07 281.512 488.162 284.459 490.381 286.618C491.485 287.685 492.37 288.57 492.976 289.188C493.311 289.49 493.612 289.828 493.874 290.195C493.481 289.976 493.122 289.702 492.806 289.382C492.14 288.825 491.206 287.988 490.054 286.957C487.762 284.896 484.609 282.01 481.165 278.784C477.721 275.558 474.629 272.624 472.422 270.477C471.307 269.398 470.421 268.525 469.815 267.895C469.477 267.595 469.18 267.252 468.93 266.876Z" fill="#E0E0E0"/>
<path d="M453.626 309.73C454.116 310.036 454.572 310.393 454.985 310.797L458.513 313.889C461.472 316.521 465.522 320.183 469.985 324.269C474.447 328.356 478.473 332.079 481.323 334.795L484.706 338.045C485.15 338.408 485.556 338.814 485.919 339.258C485.435 338.943 484.981 338.586 484.561 338.19L481.032 335.098C478.073 332.467 474.023 328.793 469.56 324.718C465.098 320.644 461.072 316.909 458.234 314.192L454.815 311.015C454.375 310.63 453.976 310.199 453.626 309.73Z" fill="#E0E0E0"/>
<path d="M485.312 338.372C485.862 338.1 486.434 337.877 487.022 337.705L491.776 336.068C495.777 334.686 501.307 332.758 507.358 330.466C513.409 328.174 518.83 325.967 522.734 324.342L527.379 322.414C527.936 322.151 528.517 321.94 529.113 321.783C528.603 322.131 528.059 322.423 527.488 322.656C526.421 323.178 524.868 323.869 522.928 324.766C519.06 326.512 513.652 328.792 507.588 331.084C501.525 333.376 495.972 335.268 491.921 336.48C489.896 337.111 488.283 337.596 487.071 337.911C486.501 338.122 485.912 338.276 485.312 338.372Z" fill="#E0E0E0"/>
<path d="M95.0395 389.048C123.039 373.066 132.134 339.5 133.844 308.736C134.135 303.594 135.19 298.258 133.165 293.541C131.14 288.824 125.743 285.235 120.966 286.969C117 288.412 114.902 292.68 112.477 296.148C109.186 300.765 104.659 304.358 99.4171 306.517C95.9975 307.911 91.8745 308.566 88.8187 306.517C84.623 303.667 84.6594 297.519 85.1808 292.438C86.1428 282.931 87.0685 273.44 87.9577 263.965C88.4549 258.884 88.9521 253.682 87.8122 248.71C86.6723 243.739 83.5801 238.912 78.863 237.118C74.1459 235.323 67.8887 237.554 66.4093 242.453C65.803 244.49 66.0213 246.673 65.6939 248.771C65.3664 250.869 64.1538 253.124 62.056 253.537C59.9581 253.949 58.0664 252.324 56.684 250.687C51.8335 245.06 48.9353 238.112 46.2069 231.212C43.4785 224.312 40.8592 217.291 36.6029 211.24C32.3465 205.189 26.1621 200.157 18.9106 199.114C11.659 198.071 3.47379 201.83 0.975774 208.815C-1.52224 215.8 1.98226 223.488 6.00819 229.721C12.0131 238.945 19.3154 247.256 27.69 254.398C29.1937 255.683 30.8186 257.078 31.3279 259.018C32.1161 262.51 28.5874 265.59 25.1435 266.403C21.2267 267.312 17.1401 266.536 13.1385 266.645C9.13678 266.754 4.65004 268.1 2.81897 271.726C0.248197 276.734 4.10436 282.64 8.05754 286.557C15.9801 294.502 25.2143 301.021 35.3538 305.825C38.9917 307.535 42.7994 309.099 45.5763 312.01C48.3532 314.92 49.7599 319.661 47.6135 323.081C45.4672 326.501 40.6652 327.228 36.809 326.137C32.9528 325.045 29.6424 322.596 26.0287 320.85C19.2744 317.564 10.1918 317.212 5.15935 322.851C1.84887 326.561 1.08491 332.067 2.1399 336.941C3.19489 341.816 5.83842 346.182 8.70023 350.28C18.7044 364.468 32.0919 376.376 47.8197 383.494C63.5475 390.612 78.4265 393.511 95.1123 389.097" fill="#F5F5F5"/>
<path d="M93.3661 411.822C93.2378 397.467 91.7394 383.158 88.8915 369.089C85.325 351.91 80.7783 334.95 75.2736 318.291L70.9809 305.183C69.5743 300.878 68.1797 296.61 66.5548 292.511C63.4306 284.659 59.8721 276.988 55.8958 269.532C52.1488 262.389 48.3411 255.744 44.7275 249.56C41.1138 243.375 37.6093 237.676 34.214 232.583C28.8851 224.591 22.9328 217.033 16.4125 209.979C14.1085 207.481 12.2653 205.602 10.9921 204.341L9.53693 202.922C9.37595 202.754 9.20156 202.6 9.0155 202.461C9.1521 202.645 9.30206 202.82 9.46417 202.982L10.8587 204.474C12.0713 205.771 13.8903 207.7 16.1458 210.234C22.5484 217.376 28.4057 224.988 33.6683 233.007C37.0273 238.064 40.4711 243.775 44.0605 249.984C47.6499 256.193 51.4333 262.838 55.144 269.968C59.0903 277.391 62.6323 285.021 65.7545 292.826C67.3552 296.901 68.7376 301.133 70.1321 305.45C71.5266 309.767 72.9454 314.132 74.3884 318.57C79.874 335.188 84.4324 352.098 88.0426 369.222C90.9182 383.233 92.4771 397.483 92.6991 411.785" fill="#E0E0E0"/>
<path d="M66.3365 292.45C66.6585 291.775 66.8948 291.062 67.0399 290.328C67.44 288.946 67.9372 286.933 68.5314 284.422C69.744 279.414 71.1143 272.454 72.6301 264.766C74.1459 257.078 75.6374 250.153 76.8986 245.182C77.517 242.756 78.0384 240.683 78.4265 239.3C78.6632 238.592 78.8258 237.86 78.9115 237.118C78.5521 237.774 78.2713 238.47 78.0748 239.191C77.5898 240.549 76.9592 242.538 76.2559 245.012C74.825 249.947 73.2243 256.884 71.7085 264.584L67.8766 284.338C67.4037 286.702 67.0035 288.703 66.664 290.304C66.4874 291.007 66.3778 291.726 66.3365 292.45Z" fill="#E0E0E0"/>
<path d="M1.99438 274.224C2.838 274.48 3.70219 274.663 4.57729 274.77C6.25072 275.073 8.66385 275.497 11.6227 276.128C17.5646 277.34 25.7013 279.256 34.5899 281.791C43.4785 284.325 51.4212 286.993 57.1206 289.067C59.9702 290.085 62.2621 290.97 63.8385 291.577C64.6411 291.944 65.4778 292.233 66.3365 292.438C65.5943 291.957 64.8063 291.551 63.9841 291.225C62.444 290.51 60.1885 289.527 57.351 288.424C51.7001 286.168 43.7695 283.416 34.8445 280.857C27.2427 278.654 19.5323 276.845 11.7439 275.437C8.76086 274.903 6.32348 274.576 4.63792 274.382C3.76437 274.24 2.87863 274.187 1.99438 274.224Z" fill="#E0E0E0"/>
<path d="M88.1882 367.815C88.399 367.588 88.5748 367.33 88.7096 367.051L90.0556 364.783C91.2683 362.819 92.7962 359.933 94.7121 356.295C98.5562 349.092 103.564 338.966 108.924 327.713C114.284 316.46 119.183 306.298 122.882 299.022L127.271 290.413L128.484 288.06C128.633 287.792 128.751 287.507 128.836 287.211C128.631 287.439 128.456 287.692 128.314 287.963L126.98 290.231C125.828 292.207 124.24 295.081 122.312 298.719C118.468 305.934 113.472 316.06 108.1 327.313C102.728 338.566 97.8407 348.716 94.1543 356.004L89.7525 364.614L88.5398 366.966C88.3839 367.231 88.2655 367.517 88.1882 367.815Z" fill="#E0E0E0"/>
<path d="M3.76483 331.8C4.02119 331.985 4.30302 332.132 4.60155 332.236L7.02681 333.316L16.0609 337.196C23.7005 340.458 34.2504 345.102 45.7703 350.244C57.2903 355.385 67.8887 359.945 75.6011 363.049C79.4451 364.614 82.5737 365.838 84.7564 366.687L87.2666 367.609C87.5549 367.728 87.856 367.813 88.1639 367.863C87.9133 367.676 87.6351 367.529 87.3393 367.427L84.9141 366.348L75.8315 362.431C68.1919 359.157 57.642 354.512 46.122 349.371C34.602 344.229 23.9915 339.67 16.2913 336.565C12.4473 335.013 9.31868 333.776 7.13594 332.928L4.6258 332.018C4.34834 331.912 4.05937 331.839 3.76483 331.8Z" fill="#E0E0E0"/>
<path d="M181.136 23.2583V123.349H37.391L32.201 23.9616L181.136 23.2583Z" fill="#E0E0E0"/>
<path d="M32.201 23.9737L32.201 123.143L175.946 123.143V23.9737L32.201 23.9737Z" fill="white"/>
<path d="M176.637 123.822H31.5219V23.2827H176.637V123.822ZM32.8922 122.452H175.267V24.6409H32.8922V122.452Z" fill="#E0E0E0"/>
<path d="M160.376 36.2817H47.7712V110.81H160.376V36.2817Z" fill="white"/>
<path d="M160.388 36.2819H159.83H158.29H152.106L128.896 36.3668L47.8318 36.5245L48.1592 36.197C48.1592 58.9702 48.1592 84.2051 48.1592 110.725L47.7954 110.374L160.412 110.446L160.121 110.725C160.194 88.0491 160.243 69.4959 160.279 56.5086C160.279 50.0332 160.279 44.9765 160.352 41.5084C160.352 39.7986 160.352 38.4768 160.352 37.5673C160.352 36.6578 160.352 36.197 160.352 36.197C160.352 36.197 160.352 36.6336 160.352 37.5067C160.352 38.3798 160.352 39.7015 160.352 41.3992C160.352 44.8431 160.352 49.8876 160.425 56.3267C160.425 69.314 160.509 87.9764 160.57 110.725V111.016H160.291L47.6742 111.089H47.3225V110.725C47.3225 84.2051 47.3225 58.9702 47.3225 36.197V35.8696H47.6378L128.884 36.0394L152.021 36.1243H158.084H159.648L160.388 36.2819Z" fill="#E0E0E0"/>
<path d="M32.1768 23.6826C33.0443 24.1208 33.8581 24.6579 34.602 25.2833C36.0814 26.3504 38.0823 27.8541 40.2408 29.5881C42.3993 31.3222 44.3031 32.9471 45.6491 34.1719C46.4197 34.7846 47.1084 35.4938 47.6984 36.2818C47.5651 36.4395 44.0606 33.5898 39.7921 30.1338C35.5236 26.6778 32.0798 23.8524 32.1768 23.6826Z" fill="#E0E0E0"/>
<path d="M175.958 23.9614C173.593 26.2861 171.065 28.438 168.391 30.4005C165.868 32.5507 163.194 34.5162 160.388 36.2818C162.769 33.9602 165.309 31.8085 167.991 29.8427C170.504 27.6954 173.166 25.73 175.958 23.9614Z" fill="#E0E0E0"/>
<path d="M175.837 123.155L159.818 110.155L175.837 123.155Z" fill="white"/>
<path d="M159.818 110.155C162.696 112.046 165.447 114.124 168.052 116.376C170.801 118.452 173.403 120.717 175.837 123.155C172.956 121.269 170.205 119.19 167.603 116.934C163.141 113.357 159.685 110.313 159.818 110.155Z" fill="#E0E0E0"/>
<path d="M32.1768 123.142C34.5192 120.84 37.0236 118.708 39.6708 116.764C42.1698 114.64 44.8159 112.694 47.5893 110.943C45.2529 113.248 42.7524 115.379 40.1074 117.322C37.6045 119.447 34.9543 121.392 32.1768 123.142Z" fill="#E0E0E0"/>
<path d="M70.6414 59.5162V84.4722H141.495V59.5162H70.6414Z" fill="#E0E0E0"/>
<path d="M513.057 0H436.201V111.404H513.057V0Z" fill="#E0E0E0"/>
<path d="M509.213 0H432.357V111.404H509.213V0Z" fill="#F5F5F5"/>
<path d="M499.658 12.0659H441.9V99.3389H499.658V12.0659Z" fill="white"/>
<path d="M499.67 99.3385C499.67 99.3385 499.67 99.193 499.67 98.9141V97.7015C499.67 96.598 499.67 94.9973 499.67 92.9116C499.67 88.728 499.67 82.6406 499.67 74.9404C499.67 59.5521 499.609 37.749 499.573 12.0898L499.767 12.2838H441.9L442.119 12.0776C442.119 45.0006 442.119 75.3527 442.119 99.387L441.949 99.2173L483.991 99.3143H495.608H498.664H499.719H498.7H495.68H484.1L441.949 99.3992H441.791V99.2294C441.791 75.2314 441.791 44.8793 441.791 11.92V11.8594H499.997V12.0534C499.997 37.7733 499.937 59.6006 499.913 75.0253C499.913 82.7012 499.913 88.7886 499.852 92.9601C499.852 95.0216 499.852 96.598 499.852 97.7015V98.9141C499.67 99.2051 499.67 99.3385 499.67 99.3385Z" fill="#E0E0E0"/>
<path d="M509.432 0C509.042 0.706388 508.583 1.37253 508.061 1.98872C507.164 3.20135 505.903 4.81415 504.424 6.57246C502.944 8.33077 501.622 9.88294 500.616 10.9864C500.118 11.6078 499.566 12.184 498.967 12.7084C499.399 12.0279 499.89 11.3868 500.434 10.7924L504.133 6.30568C505.527 4.59587 506.8 3.05583 507.831 1.80682C508.312 1.16021 508.848 0.555749 509.432 0Z" fill="#E0E0E0"/>
<path d="M499.961 99.0596C502.838 103.623 506.218 107.85 510.038 111.659L499.961 99.0596Z" fill="white"/>
<path d="M510.038 111.659C509.398 111.187 508.809 110.651 508.28 110.058C507.249 109.015 505.854 107.524 504.472 105.778C503.283 104.282 502.17 102.728 501.137 101.121C500.664 100.477 500.258 99.7862 499.925 99.0596C500.447 99.6561 500.921 100.293 501.343 100.963C502.192 102.176 503.381 103.777 504.763 105.511C506.145 107.245 507.479 108.773 508.462 109.852C509.03 110.416 509.557 111.019 510.038 111.659Z" fill="#E0E0E0"/>
<path d="M432.345 111.32L442.41 98.9023L432.345 111.32Z" fill="white"/>
<path d="M442.41 98.9023C440.907 101.102 439.288 103.219 437.559 105.244C434.77 108.664 432.442 111.392 432.357 111.308C433.862 109.11 435.481 106.994 437.207 104.965C438.835 102.856 440.572 100.832 442.41 98.9023Z" fill="#E0E0E0"/>
<path d="M432.345 0C434.065 1.85984 435.685 3.81096 437.195 5.84487C438.822 7.78361 440.344 9.80752 441.755 11.908C440.03 10.0517 438.411 8.10041 436.904 6.06315C435.278 4.12441 433.756 2.1005 432.345 0Z" fill="#E0E0E0"/>
<path d="M481.675 29.7822H462.333V84.6901H481.675V29.7822Z" fill="#E0E0E0"/>
<path d="M529.27 454.106C529.27 454.288 411.136 454.422 265.463 454.422C119.789 454.422 1.63058 454.337 1.63058 454.106C1.63058 453.876 119.729 453.791 265.463 453.791C411.197 453.791 529.27 453.985 529.27 454.106Z" fill="#263238"/>
<path d="M381.051 244.321C381.951 247.983 381.846 251.819 380.747 255.427C379.648 259.034 377.595 262.277 374.805 264.814C371.107 268.088 366.317 269.98 362.922 273.582C360.82 275.977 359.375 278.875 358.727 281.995C358.078 285.115 358.249 288.349 359.223 291.383C360.254 294.395 361.884 297.166 364.016 299.53C366.149 301.894 368.738 303.8 371.628 305.134C375.564 306.973 379.879 307.855 384.22 307.707C388.562 307.56 392.807 306.387 396.609 304.285C405.982 298.986 411.439 288.351 412.821 277.668C414.204 266.985 412.033 256.168 409.184 245.776" fill="#263238"/>
<path d="M499.27 432.703C508.971 431.114 518.066 434.073 527.67 436.195C530.223 436.952 532.919 437.097 535.54 436.62C539.699 435.552 542.658 431.502 543.3 427.258C543.82 423.54 542.957 419.76 540.875 416.635C540.04 415.289 538.902 414.155 537.553 413.325C536.106 412.6 534.524 412.187 532.908 412.112C527.023 411.638 521.118 412.752 515.81 415.338C510.517 417.911 505.715 421.392 501.622 425.621C499.585 427.658 500.191 429.999 499.294 432.739" fill="#263238"/>
<path d="M302.593 276.128C301.038 266.878 301.227 257.418 303.151 248.238C303.965 243.748 305.61 239.45 308.002 235.566C308.817 234.117 310.057 232.953 311.555 232.231C312.643 231.869 313.809 231.818 314.925 232.081C316.041 232.344 317.061 232.913 317.872 233.722C318.909 234.801 319.704 236.087 320.206 237.496C320.707 238.905 320.904 240.405 320.783 241.895C320.567 244.876 319.836 247.797 318.624 250.529C314.877 260.109 308.923 268.064 302.557 276.116" fill="#263238"/>
<path d="M490.551 311.186C492.746 312.75 541.482 417.727 541.482 417.727C537.562 416.053 533.221 415.63 529.052 416.515L526.409 417.218C521.677 418.49 517.19 420.539 513.13 423.281L499.221 432.691C498.671 432.375 498.204 431.931 497.86 431.397C497.517 430.863 497.305 430.255 497.245 429.623V429.223L459.459 364.371L490.551 311.186Z" fill="#407BFF"/>
<path d="M307.553 144.06L320.552 217.946C324.736 227.889 373.52 288.133 373.52 288.133L357.392 339.96L293.317 252.348C287.367 245.986 284.131 237.556 284.295 228.847L286.793 149.905L307.553 144.06Z" fill="#FFBE9D"/>
<path d="M376.734 276.553L410.19 279.087L439.366 283.61C439.366 283.61 490.551 297.058 490.551 302.661C490.551 304.528 476.582 349.02 468.724 375.673C466.798 382.147 465.227 388.721 464.019 395.366L490.551 454.106H364.644V400.253C364.644 400.253 356.155 329.52 357.647 319.856C359.138 310.191 376.734 276.553 376.734 276.553Z" fill="#407BFF"/>
<path d="M291.68 114.206C291.876 106.68 292.647 99.1806 293.984 91.7721C294.166 90.7171 294.602 89.4438 295.657 89.3468C296.967 89.1771 297.634 90.8626 297.803 92.1723C298.966 101.107 298.593 110.175 296.7 118.984" fill="#EB996E"/>
<path d="M306.595 270.659C320.953 257.829 321.438 235.602 320.213 217.91C319.973 216.618 320.169 215.283 320.771 214.114C322.141 212.162 325.476 212.902 326.834 214.866C328.192 216.83 328.046 219.413 327.974 221.79C328.713 219.777 331.866 219.789 333.346 221.341C334.825 222.894 335.08 225.234 335.249 227.405L335.722 233.322L377.667 273.339C377.667 273.339 378.819 269.701 381.899 271.799C384.979 273.897 386.968 278.323 386.968 278.323L357.416 342.823L302.569 276.128C303.624 274.11 304.981 272.266 306.595 270.659Z" fill="#407BFF"/>
<path d="M363.516 315.296C359.139 320.878 355.871 327.246 353.888 334.056C351.911 340.91 352.127 348.212 354.506 354.937C356.347 359.591 359.362 363.688 363.257 366.829C367.153 369.97 371.796 372.048 376.734 372.86" fill="#407BFF"/>
<path d="M499.27 432.703L497.681 454.106H528.761L536.037 416.211C526.569 415.682 517.232 418.608 509.759 424.445L499.27 432.703Z" fill="#FFBE9D"/>
<path d="M321.207 265.918C321.383 265.329 321.61 264.757 321.886 264.208C322.371 263.141 323.026 261.565 323.766 259.6C324.506 257.636 325.294 255.259 326.033 252.591C326.802 249.68 327.413 246.729 327.865 243.751C328.283 240.772 328.538 237.773 328.629 234.766C328.629 231.989 328.628 229.491 328.459 227.393C328.289 225.295 328.131 223.609 327.974 222.445C327.869 221.84 327.812 221.228 327.804 220.614C328.001 221.197 328.139 221.798 328.216 222.409C328.531 224.045 328.761 225.697 328.907 227.356C329.144 229.823 329.245 232.3 329.211 234.778C329.118 240.852 328.238 246.889 326.591 252.737C325.914 255.121 325.104 257.465 324.166 259.758C323.366 261.722 322.65 263.275 322.092 264.317C321.838 264.873 321.542 265.408 321.207 265.918Z" fill="#263238"/>
<path d="M330.338 254.652C330.734 253.609 331.187 252.589 331.696 251.597C333.819 246.675 335.051 241.415 335.334 236.063C335.333 234.949 335.393 233.835 335.516 232.728C335.755 233.827 335.844 234.952 335.783 236.075C335.741 241.513 334.499 246.876 332.145 251.778C331.682 252.817 331.074 253.785 330.338 254.652Z" fill="#263238"/>
<path d="M379.595 288.194C379.498 288.133 380.008 287.345 380.299 285.914C380.639 284.044 380.531 282.12 379.983 280.3C379.407 278.467 378.706 276.677 377.886 274.94C377.503 274.221 377.217 273.454 377.037 272.66C377.517 273.308 377.923 274.008 378.249 274.746C379.209 276.454 379.985 278.259 380.565 280.13C381.145 282.046 381.191 284.083 380.699 286.023C380.546 286.838 380.163 287.591 379.595 288.194Z" fill="#263238"/>
<path d="M372.307 373.612C372.118 373.533 371.939 373.431 371.774 373.308L370.343 372.363C369.13 371.526 367.324 370.301 365.214 368.64C362.719 366.719 360.439 364.536 358.411 362.128C355.915 359.147 354.117 355.646 353.148 351.881C352.222 348.115 351.984 344.212 352.445 340.361C352.816 337.238 353.511 334.162 354.518 331.182C355.185 329.174 355.959 327.202 356.834 325.276C357.15 324.597 357.392 324.064 357.574 323.724C357.654 323.535 357.756 323.356 357.877 323.19C357.648 323.933 357.376 324.661 357.065 325.373C356.519 326.756 355.731 328.769 354.943 331.315C354.011 334.282 353.37 337.332 353.027 340.422C352.604 344.203 352.851 348.028 353.754 351.724C354.698 355.405 356.441 358.833 358.859 361.764C360.845 364.157 363.067 366.343 365.492 368.288C367.554 369.986 369.288 371.259 370.488 372.169L371.847 373.211C372.162 373.454 372.32 373.587 372.307 373.612Z" fill="#263238"/>
<path d="M441.003 385.605C440.835 385.694 440.655 385.759 440.469 385.799C440.106 385.896 439.584 386.078 438.893 386.211C436.939 386.635 434.95 386.874 432.951 386.926C426.287 387.131 419.715 385.336 414.081 381.772C408.446 378.208 404.008 373.039 401.338 366.93C400.524 365.103 399.886 363.203 399.434 361.255C399.264 360.564 399.204 360.042 399.131 359.654C399.089 359.467 399.069 359.276 399.07 359.084C399.318 359.77 399.521 360.47 399.677 361.182C401.607 368.504 405.929 374.97 411.955 379.553C417.982 384.136 425.368 386.574 432.939 386.478C434.918 386.468 436.893 386.298 438.844 385.968C439.557 385.809 440.278 385.688 441.003 385.605Z" fill="#263238"/>
<path d="M460.296 409.239C460.126 409.239 461.727 402.484 463.934 394.263C466.141 386.041 467.96 379.408 468.117 379.456C468.275 379.505 466.686 386.199 464.54 394.42C462.394 402.642 460.466 409.239 460.296 409.239Z" fill="#263238"/>
<path d="M477.212 394.941C477.067 395.026 472.192 387.059 466.298 377.14C460.405 367.221 455.797 359.108 455.955 359.023C456.112 358.938 460.975 366.893 466.868 376.812C472.762 386.732 477.418 394.844 477.212 394.941Z" fill="#263238"/>
<path d="M523.765 414.574C523.765 414.695 521.995 414.841 519.23 415.544C517.615 415.954 516.03 416.477 514.488 417.108C512.607 417.904 510.791 418.845 509.056 419.921C507.343 421.024 505.721 422.26 504.205 423.62C502.969 424.75 501.814 425.965 500.749 427.258C498.93 429.453 498.033 430.993 497.924 430.896C498.07 430.503 498.261 430.129 498.494 429.78C499.056 428.787 499.692 427.839 500.398 426.943C501.434 425.603 502.573 424.346 503.805 423.183C505.33 421.771 506.978 420.497 508.728 419.376C510.494 418.278 512.353 417.337 514.282 416.562C515.856 415.941 517.478 415.45 519.133 415.095C520.242 414.838 521.369 414.668 522.504 414.586C522.921 414.521 523.346 414.517 523.765 414.574Z" fill="#263238"/>
<path d="M529.707 407.274C529.707 407.408 527.755 407.165 524.638 407.432C522.82 407.596 521.019 407.912 519.254 408.378C514.926 409.527 510.881 411.553 507.37 414.332C505.942 415.468 504.612 416.721 503.393 418.079C501.319 420.407 500.349 422.105 500.24 422.044C500.403 421.615 500.619 421.207 500.883 420.831C501.143 420.363 501.434 419.914 501.756 419.485C502.16 418.898 502.593 418.331 503.053 417.788C504.245 416.365 505.569 415.057 507.006 413.883C508.785 412.457 510.702 411.214 512.73 410.172C514.771 409.173 516.908 408.385 519.108 407.82C520.913 407.367 522.756 407.087 524.614 406.983C525.321 406.948 526.029 406.948 526.736 406.983C527.275 406.985 527.813 407.018 528.349 407.08C528.808 407.087 529.264 407.152 529.707 407.274Z" fill="#263238"/>
<g opacity="0.3">
<path d="M400.368 361.667C397.518 367.075 399.895 373.672 402.502 379.214C404.527 383.506 406.783 387.86 410.469 390.855C412.28 392.336 414.378 393.426 416.631 394.058C418.884 394.689 421.243 394.848 423.56 394.525C425.877 394.201 428.102 393.403 430.096 392.178C432.09 390.954 433.809 389.331 435.146 387.411C427.416 387.296 419.902 384.845 413.591 380.38C407.279 375.916 402.467 369.646 399.786 362.395" fill="black"/>
</g>
<g opacity="0.3">
<path d="M456.04 359.023C453.857 364.226 455.506 371.344 457.786 376.497C460.066 381.651 462.491 387.411 460.66 392.759C460.188 393.708 459.943 394.754 459.944 395.815C460.066 396.858 461.157 397.864 462.139 397.379C462.647 397.022 462.998 396.484 463.121 395.875C464.843 390.685 466.569 385.499 468.299 380.317" fill="black"/>
</g>
<path d="M341.325 290.522C341.52 287.266 341.925 284.025 342.537 280.821C342.949 277.599 343.569 274.408 344.393 271.266C344.209 274.523 343.804 277.764 343.18 280.967C342.772 284.189 342.152 287.381 341.325 290.522Z" fill="#FAFAFA"/>
<path d="M328.556 287.842C328.398 287.939 326.312 285.029 323.426 281.682C320.54 278.335 317.994 275.825 318.115 275.691C320.289 277.281 322.239 279.158 323.911 281.27C325.738 283.25 327.299 285.459 328.556 287.842Z" fill="#FAFAFA"/>
<path d="M339.518 256.605C339.153 257.386 338.693 258.119 338.148 258.788C337.226 260.085 335.88 261.819 334.316 263.638C332.751 265.457 331.248 267.094 330.12 268.21C329.555 268.858 328.906 269.429 328.192 269.907C328.059 269.786 330.714 266.912 333.831 263.226C336.947 259.539 339.372 256.447 339.518 256.605Z" fill="#FAFAFA"/>
<path d="M335.237 241.338C335.055 241.411 334.364 239.871 333.03 238.331C331.696 236.791 330.266 235.906 330.363 235.724C331.624 236.087 332.729 236.859 333.503 237.918C334.436 238.841 335.044 240.041 335.237 241.338Z" fill="#FAFAFA"/>
<path d="M324.178 250.748C323.188 251.215 322.118 251.49 321.025 251.56C319.965 251.837 318.861 251.903 317.775 251.754C319.825 251.011 321.999 250.669 324.178 250.748Z" fill="#FAFAFA"/>
<path d="M352.081 264.22C352.108 262.333 351.974 260.446 351.681 258.581C351.178 256.76 350.517 254.987 349.704 253.282C351.079 254.695 351.982 256.5 352.287 258.448C352.806 260.348 352.734 262.362 352.081 264.22Z" fill="#FAFAFA"/>
<path d="M366.984 280.251C364.747 276.68 361.744 273.652 358.192 271.386C360.198 272.164 362.017 273.356 363.532 274.883C365.046 276.41 366.223 278.239 366.984 280.251Z" fill="#FAFAFA"/>
<path d="M343.059 308.068C339.449 309.421 335.449 309.286 331.939 307.692C332 307.511 334.364 308.274 337.481 308.359C340.597 308.444 343.01 307.886 343.059 308.068Z" fill="#FAFAFA"/>
<path d="M354.288 313.829C354.118 313.756 355.064 310.967 355.852 307.426C356.64 303.885 356.992 300.951 357.174 300.975C357.299 303.193 357.061 305.417 356.47 307.559C356.085 309.753 355.348 311.87 354.288 313.829Z" fill="#FAFAFA"/>
<path d="M378.819 314.762C376.901 313.141 375.128 311.356 373.52 309.427C371.746 307.641 370.123 305.71 368.67 303.655C370.58 305.284 372.349 307.073 373.957 309.002C375.73 310.789 377.356 312.715 378.819 314.762Z" fill="#FAFAFA"/>
<path d="M390.242 343.102C388.788 342.047 387.461 340.826 386.289 339.464C384.974 338.243 383.803 336.876 382.797 335.39C384.251 336.445 385.578 337.666 386.75 339.028C388.076 340.238 389.249 341.606 390.242 343.102Z" fill="#FAFAFA"/>
<path d="M369.009 345.806C367.615 347.29 365.974 348.521 364.159 349.444C362.451 350.58 360.554 351.402 358.556 351.869C358.556 351.699 360.981 350.656 363.843 348.946C366.705 347.237 368.888 345.66 369.009 345.806Z" fill="#FAFAFA"/>
<path d="M378.783 372.763C378.601 372.763 379.329 369.537 379.692 365.548C380.056 361.558 379.947 358.272 380.129 358.272C380.574 360.672 380.64 363.127 380.323 365.548C380.202 368.02 379.682 370.457 378.783 372.763Z" fill="#FAFAFA"/>
<path d="M415.538 350.851C413.534 349.625 411.758 348.062 410.287 346.231C408.665 344.538 407.355 342.571 406.419 340.422C406.576 340.313 408.238 342.945 410.76 345.818C413.282 348.692 415.659 350.693 415.538 350.851Z" fill="#FAFAFA"/>
<path d="M428.962 362.286C428.816 362.176 430.659 359.654 432.721 356.416C434.782 353.179 436.298 350.462 436.456 350.547C435.669 352.752 434.588 354.84 433.242 356.756C432.078 358.788 430.638 360.649 428.962 362.286Z" fill="#FAFAFA"/>
<path d="M426.997 334.298C422.857 333.61 418.795 332.514 414.871 331.024C416.962 331.273 419.024 331.72 421.031 332.358C423.08 332.802 425.079 333.452 426.997 334.298Z" fill="#FAFAFA"/>
<path d="M417.211 383.555C416.996 381.645 416.996 379.717 417.211 377.807C417.227 375.886 417.446 373.971 417.866 372.096C418.084 374.005 418.084 375.934 417.866 377.844C417.854 379.765 417.634 381.68 417.211 383.555Z" fill="#FAFAFA"/>
<path d="M425.675 400.423C426.31 398.464 426.821 396.467 427.203 394.444C427.371 392.391 427.403 390.329 427.3 388.272C427.926 390.29 428.105 392.42 427.824 394.514C427.544 396.608 426.81 398.616 425.675 400.398V400.423Z" fill="#FAFAFA"/>
<path d="M403.739 396.7C403.12 392.511 403.941 388.236 406.067 384.574C406.237 384.646 405.121 387.205 404.491 390.564C403.86 393.923 403.921 396.688 403.739 396.7Z" fill="#FAFAFA"/>
<path d="M383.73 405.249C381.754 403.876 379.851 402.398 378.031 400.823C376.084 399.412 374.21 397.902 372.417 396.3C374.596 397.386 376.633 398.738 378.48 400.326C380.416 401.756 382.179 403.408 383.73 405.249Z" fill="#FAFAFA"/>
<path d="M397.275 381.457C392.635 384.402 387.769 386.976 382.724 389.157C385.007 387.586 387.407 386.192 389.903 384.986C392.266 383.621 394.731 382.442 397.275 381.457Z" fill="#FAFAFA"/>
<path d="M439.366 434.849C439.108 434.933 438.845 434.998 438.578 435.043C438.056 435.14 437.292 435.334 436.298 435.468C433.49 435.897 430.65 436.08 427.81 436.013C420.473 435.907 413.243 434.246 406.596 431.139C399.949 428.033 394.036 423.553 389.248 417.994C386.467 414.793 384.084 411.267 382.154 407.492C380.838 404.963 379.751 402.321 378.904 399.598C378.577 398.64 378.419 397.876 378.274 397.367C378.193 397.106 378.14 396.838 378.116 396.566C378.232 396.812 378.325 397.068 378.395 397.33C378.577 397.828 378.771 398.543 379.135 399.525C381.46 406.173 385.041 412.311 389.684 417.606C394.485 423.037 400.343 427.431 406.901 430.519C413.458 433.607 420.577 435.324 427.822 435.565C430.656 435.67 433.494 435.556 436.31 435.225C437.317 435.128 438.081 434.97 438.602 434.922C438.853 434.869 439.109 434.845 439.366 434.849Z" fill="#263238"/>
<path d="M403.133 428.568C402.719 426.643 402.918 424.637 403.702 422.832C404.295 420.954 405.466 419.311 407.049 418.139C405.978 419.69 405.057 421.338 404.297 423.062C403.741 424.858 403.352 426.701 403.133 428.568Z" fill="#FAFAFA"/>
<path d="M393.153 424.396C392.001 425.288 390.944 426.296 390 427.404C389.212 428.625 388.546 429.921 388.011 431.272C388.052 429.735 388.568 428.248 389.489 427.017C390.41 425.786 391.69 424.87 393.153 424.396Z" fill="#FAFAFA"/>
<path d="M431.532 447.242C429.548 447.083 427.63 446.449 425.942 445.394C424.254 444.339 422.844 442.893 421.831 441.179C424.468 444.026 427.817 446.119 431.532 447.242Z" fill="#FAFAFA"/>
<path d="M437.498 413.653C437.244 415.435 436.49 417.11 435.325 418.483C434.16 419.856 432.631 420.872 430.914 421.414C432.331 420.436 433.647 419.318 434.843 418.079C435.878 416.699 436.768 415.216 437.498 413.653Z" fill="#FAFAFA"/>
<path d="M454.463 438.693C454.318 438.572 455.918 436.547 457.398 433.758C458.877 430.969 459.665 428.507 459.823 428.568C459.136 432.424 457.252 435.967 454.439 438.693H454.463Z" fill="#FAFAFA"/>
<path d="M476.885 441.979C476.957 442.161 474.75 443.034 472.531 444.866C470.312 446.697 468.978 448.661 468.821 448.503C469.518 446.831 470.663 445.383 472.131 444.32C473.468 443.114 475.114 442.303 476.885 441.979Z" fill="#FAFAFA"/>
<path d="M459.787 413.277C459.593 413.337 458.574 409.797 456.306 405.868C454.039 401.939 451.613 399.174 451.771 399.053C452.437 399.522 453.022 400.095 453.505 400.75C456.057 403.732 458.001 407.184 459.229 410.912C459.534 411.668 459.722 412.465 459.787 413.277Z" fill="#FAFAFA"/>
<path d="M463.133 377.177C459.359 378.48 455.457 379.379 451.492 379.857C455.268 378.557 459.17 377.658 463.133 377.177Z" fill="#FAFAFA"/>
<path d="M452.814 366.384C451.429 365.097 450.185 363.666 449.103 362.116C447.869 360.687 446.791 359.13 445.89 357.471C447.288 358.741 448.533 360.17 449.601 361.728C450.847 363.151 451.925 364.714 452.814 366.384Z" fill="#FAFAFA"/>
<path d="M478.425 359.909C474.495 359.811 470.629 358.894 467.075 357.217C468.995 357.545 470.894 357.986 472.762 358.539C474.675 358.88 476.567 359.338 478.425 359.909Z" fill="#FAFAFA"/>
<path d="M496.614 359.582C497.136 357.866 497.755 356.182 498.47 354.537C498.981 352.814 499.601 351.126 500.325 349.48C500.226 351.295 499.816 353.08 499.112 354.755C498.571 356.499 497.726 358.133 496.614 359.582Z" fill="#FAFAFA"/>
<path d="M492.467 384.222C488.706 383.382 485.309 381.369 482.766 378.474C482.887 378.328 484.803 380.002 487.459 381.566C490.115 383.13 492.528 384.04 492.467 384.222Z" fill="#FAFAFA"/>
<path d="M504.278 383.47C504.521 381.036 504.968 378.627 505.612 376.267C506.051 373.869 506.692 371.512 507.528 369.222C506.847 374.061 505.748 378.833 504.242 383.482L504.278 383.47Z" fill="#FAFAFA"/>
<path d="M494.419 411.021C491.392 407.595 488.689 403.897 486.343 399.974C487.932 401.619 489.369 403.405 490.636 405.309C492.07 407.093 493.337 409.004 494.419 411.021Z" fill="#FAFAFA"/>
<path d="M511.251 400.483C511.081 400.568 509.977 398.373 508.231 395.924C506.485 393.474 504.799 391.691 504.933 391.558C506.458 392.626 507.756 393.987 508.753 395.56C509.911 397.014 510.761 398.689 511.251 400.483Z" fill="#FAFAFA"/>
<path d="M527.039 398.118C525.657 396.495 524.361 394.799 523.159 393.038C521.781 391.414 520.485 389.723 519.278 387.969C522.504 390.812 525.141 394.26 527.039 398.118Z" fill="#FAFAFA"/>
<path d="M523.292 408.584C523.076 407.127 522.586 405.724 521.849 404.449C520.962 403.271 519.864 402.268 518.611 401.49C518.611 401.417 519.169 401.49 519.933 401.866C520.919 402.391 521.753 403.159 522.358 404.097C522.976 405.033 523.347 406.109 523.438 407.226C523.559 408.026 523.401 408.584 523.292 408.584Z" fill="#FAFAFA"/>
<path d="M511.02 422.929C510.923 422.929 510.96 422.601 510.863 422.177C510.748 421.631 510.453 421.14 510.026 420.782C509.578 420.451 509.03 420.284 508.474 420.309C508.037 420.309 507.758 420.419 507.71 420.309C507.661 420.2 507.892 419.982 508.413 419.836C508.756 419.747 509.115 419.738 509.462 419.809C509.809 419.881 510.135 420.032 510.414 420.25C510.693 420.469 510.918 420.748 511.072 421.068C511.225 421.387 511.303 421.738 511.299 422.092C511.287 422.674 511.093 422.953 511.02 422.929Z" fill="#FAFAFA"/>
<path d="M384.858 445.86C382.593 444.987 380.535 443.653 378.815 441.941C377.095 440.229 375.75 438.177 374.866 435.917C377.339 440.007 380.768 443.435 384.858 445.909V445.86Z" fill="#FAFAFA"/>
<path d="M307.674 144.885C305.722 126.441 302.193 109.088 301.235 91.0079C301.273 90.5546 301.216 90.0983 301.068 89.6682C300.92 89.2381 300.683 88.8436 300.374 88.5099C300.11 88.3556 299.818 88.2565 299.514 88.2188C299.21 88.1812 298.902 88.2056 298.609 88.2907C298.315 88.3757 298.042 88.5197 297.805 88.7137C297.569 88.9077 297.374 89.1478 297.234 89.4194C296.704 90.5543 296.495 91.812 296.627 93.0572C296.648 102.672 295.007 112.219 291.777 121.275C289.703 127.156 286.926 132.795 285.374 138.822C283.822 144.849 286.744 146.898 289.461 152.513" fill="#FFBE9D"/>
<path d="M289.497 152.488C287.095 150.645 285.232 148.191 284.103 145.381C282.975 142.571 282.622 139.51 283.082 136.518C283.701 132.88 285.507 129.581 286.938 126.186C288.369 122.791 289.473 119.019 288.6 115.442C288.117 114.114 287.791 112.735 287.629 111.331C287.629 109.925 288.539 108.348 289.946 108.288C290.477 108.331 290.992 108.496 291.448 108.772C291.905 109.048 292.291 109.426 292.577 109.876C294.942 112.799 296.833 121.335 295.645 127.714" fill="#FFBE9D"/>
<path d="M295.645 127.714C295.645 127.714 295.766 126.732 295.839 124.962C295.915 122.464 295.708 119.967 295.221 117.516C294.894 115.828 294.407 114.176 293.765 112.581C293.428 111.713 292.971 110.897 292.407 110.155C292.154 109.758 291.823 109.416 291.433 109.151C291.043 108.886 290.603 108.704 290.14 108.615C289.663 108.638 289.207 108.816 288.841 109.123C288.475 109.43 288.22 109.848 288.115 110.313C287.855 111.347 287.922 112.436 288.309 113.43C288.716 114.539 289.001 115.69 289.157 116.861C289.275 118.074 289.23 119.298 289.024 120.499C288.175 125.422 285.556 129.4 284.173 133.341C283.492 135.182 283.127 137.126 283.094 139.089C283.087 140.799 283.34 142.5 283.846 144.133C284.581 146.517 285.821 148.713 287.484 150.572C288.697 151.87 289.485 152.44 289.448 152.5C289.232 152.391 289.028 152.256 288.842 152.1C288.295 151.683 287.78 151.225 287.302 150.73C285.53 148.902 284.202 146.69 283.422 144.267C282.869 142.596 282.583 140.849 282.573 139.089C282.583 137.063 282.94 135.053 283.628 133.147C284.962 129.121 287.545 125.144 288.345 120.402C288.552 119.25 288.597 118.074 288.478 116.91C288.333 115.771 288.06 114.653 287.666 113.575C287.247 112.461 287.187 111.244 287.496 110.095C287.677 109.521 288.007 109.006 288.454 108.603C288.677 108.395 288.941 108.235 289.229 108.133C289.517 108.03 289.823 107.988 290.128 108.009C290.683 108.083 291.217 108.273 291.693 108.568C292.17 108.862 292.578 109.255 292.892 109.719C293.482 110.522 293.955 111.403 294.299 112.338C294.94 113.967 295.411 115.657 295.706 117.383C296.165 119.869 296.307 122.403 296.13 124.925C296.087 125.61 295.998 126.29 295.863 126.962C295.827 127.222 295.753 127.475 295.645 127.714Z" fill="#EB996E"/>
<path d="M454.172 226.192C454.569 227.927 455.508 229.49 456.853 230.654C458.199 231.819 459.88 232.524 461.654 232.668C463.432 232.755 465.202 232.389 466.799 231.604C468.396 230.819 469.768 229.641 470.785 228.181C472.799 225.211 473.609 221.588 473.053 218.043C472.362 212.938 468.966 208.027 464.043 206.511C459.12 204.995 452.996 207.724 451.638 212.671L445.963 220.59L454.172 226.192Z" fill="#263238"/>
<path d="M447.466 210.634C448.017 206.245 447.68 201.791 446.476 197.536C445.273 193.28 443.226 189.31 440.459 185.86C437.691 182.41 434.259 179.552 430.365 177.454C426.472 175.356 422.196 174.062 417.793 173.648C400.198 171.975 384.543 185.084 381.912 202.57C379.595 217.897 377.607 233.37 377.679 238.949C377.898 255.925 387.805 262.498 391.831 264.414C393.276 264.935 394.772 265.305 396.293 265.517C396.308 265.52 396.322 265.526 396.334 265.534C396.346 265.543 396.356 265.553 396.364 265.566C396.372 265.578 396.378 265.592 396.38 265.607C396.382 265.621 396.382 265.636 396.378 265.651L392.619 285.053C390.909 297.798 398.027 309.172 410.748 311.027C423.468 312.883 433.497 303.097 435.449 290.34L447.466 210.634Z" fill="#FFBE9D"/>
<path d="M384.834 212.477C385.113 212.877 387.344 211.677 390.218 212.101C393.092 212.525 394.972 214.272 395.335 213.956C395.517 213.823 395.263 213.156 394.45 212.356C393.335 211.313 391.924 210.64 390.412 210.428C388.919 210.211 387.396 210.47 386.059 211.167C385.052 211.713 384.688 212.295 384.834 212.477Z" fill="#263238"/>
<path d="M410.348 218.007C410.627 218.407 412.87 217.206 415.732 217.631C418.594 218.055 420.497 219.801 420.861 219.486C421.031 219.353 420.788 218.686 419.964 217.873C418.85 216.836 417.445 216.168 415.938 215.957C414.445 215.74 412.922 215.998 411.585 216.697C410.602 217.243 410.214 217.825 410.348 218.007Z" fill="#263238"/>
<path d="M400.428 231.564C398.985 230.873 397.462 230.364 395.893 230.048C395.166 229.866 394.499 229.612 394.45 229.102C394.498 228.338 394.777 227.606 395.25 227.005L398.233 221.742C402.393 214.236 405.509 208.027 405.218 207.857C404.927 207.687 401.289 213.641 397.13 221.196L394.232 226.495C393.651 227.318 393.369 228.315 393.431 229.321C393.508 229.587 393.642 229.834 393.825 230.044C394.007 230.253 394.233 230.42 394.486 230.533C394.875 230.699 395.282 230.817 395.699 230.885C397.24 231.311 398.83 231.539 400.428 231.564Z" fill="#263238"/>
<path d="M396.402 265.639C396.402 265.639 407.316 268.161 422.413 261.855C422.413 261.855 415.914 275.861 395.396 270.877L396.402 265.639Z" fill="#EB996E"/>
<path d="M400.635 238.658C401.277 238.067 402.058 237.646 402.905 237.434C403.753 237.222 404.64 237.226 405.485 237.445C406.109 237.599 406.696 237.876 407.213 238.259C407.729 238.642 408.164 239.124 408.492 239.676C408.807 240.209 408.949 240.826 408.9 241.443C408.85 242.059 408.61 242.645 408.213 243.12C407.68 243.571 407.024 243.85 406.329 243.922C405.635 243.993 404.935 243.853 404.321 243.52C403.034 242.85 401.895 241.926 400.974 240.804C400.678 240.53 400.439 240.201 400.271 239.834C400.187 239.66 400.158 239.465 400.188 239.274C400.219 239.083 400.307 238.906 400.44 238.767" fill="#EB996E"/>
<path d="M408.577 234.778C408.116 234.681 407.656 237.797 404.673 239.628C401.689 241.459 398.415 240.622 398.331 241.059C398.258 241.253 398.985 241.774 400.38 242.017C402.199 242.305 404.062 241.944 405.643 240.998C407.16 240.086 408.264 238.621 408.723 236.912C409.026 235.614 408.796 234.79 408.577 234.778Z" fill="#263238"/>
<path d="M412.324 208.67C412.494 209.494 415.416 209.543 418.715 210.44C422.013 211.338 424.62 212.647 425.166 212.017C425.409 211.714 425.045 210.913 424.063 209.992C422.732 208.852 421.159 208.031 419.463 207.59C417.768 207.149 415.994 207.099 414.277 207.445C412.943 207.76 412.264 208.282 412.324 208.67Z" fill="#263238"/>
<path d="M387.732 203.637C388.132 204.364 390.218 203.976 392.583 204.291C394.947 204.607 396.912 205.359 397.433 204.752C397.688 204.449 397.433 203.746 396.669 203.006C395.597 202.092 394.277 201.518 392.877 201.358C391.477 201.198 390.062 201.46 388.811 202.109C387.926 202.654 387.55 203.285 387.732 203.637Z" fill="#263238"/>
<path d="M378.589 198.774C382.093 204.122 393.225 200.811 399.943 197.137C403.453 199.376 407.697 200.157 411.773 199.314C415.849 198.472 419.436 196.072 421.771 192.626C425.615 197.477 433.436 195.9 436.322 190.383C439.208 184.865 437.535 177.262 433.654 172.436C429.774 167.61 424.026 165.16 418.375 164.129C404.976 161.704 390.388 166.846 382.372 178.96C378.674 184.55 376.455 192.081 378.65 198.774" fill="#263238"/>
<path d="M415.623 166.034C415.623 166.276 412.458 165.67 407.486 166.494C401.028 167.569 395.108 170.754 390.655 175.553C386.462 180.577 383.69 186.631 382.627 193.087C382.258 195.779 382.116 198.497 382.203 201.212C381.944 200.511 381.793 199.775 381.754 199.029C381.542 197.012 381.574 194.976 381.851 192.966C382.73 186.26 385.516 179.946 389.878 174.777C394.489 169.784 400.701 166.562 407.437 165.67C409.448 165.399 411.483 165.367 413.5 165.573C414.227 165.617 414.943 165.772 415.623 166.034Z" fill="#455A64"/>
<path d="M397.506 190.965C397.306 190.351 397.216 189.706 397.239 189.061C397.176 187.302 397.359 185.543 397.785 183.835C398.434 180.97 399.662 178.269 401.394 175.896C403.125 173.524 405.325 171.532 407.855 170.041C410.386 168.551 413.196 167.594 416.11 167.23C419.024 166.866 421.983 167.103 424.802 167.925C426.504 168.391 428.136 169.085 429.653 169.986C430.237 170.291 430.76 170.702 431.193 171.199C429.078 170.198 426.878 169.386 424.62 168.774C419.128 167.375 413.306 168.203 408.422 171.079C403.538 173.955 399.989 178.644 398.549 184.126C397.36 188.176 397.736 190.965 397.506 190.965Z" fill="#455A64"/>
<path d="M429.653 185.145C428.338 189.891 427.581 194.774 427.397 199.696C427.216 204.645 428.754 209.504 431.751 213.447C436.431 219.086 444.241 220.808 451.444 222.178C455.297 212.566 456.458 202.085 454.803 191.863C453.978 186.903 452.377 181.846 448.885 178.233C446.289 175.671 442.916 174.044 439.295 173.605C435.674 173.166 432.01 173.94 428.877 175.807" fill="#263238"/>
<path d="M433.654 208.621C431.763 212.72 431.896 217.461 432.551 221.96C433.206 226.459 434.346 230.861 434.297 235.372C434.249 239.883 432.818 244.673 429.277 247.498C428.203 248.214 427.197 249.026 426.269 249.923C425.812 250.379 425.506 250.964 425.393 251.6C425.28 252.236 425.366 252.891 425.639 253.476C426.318 254.568 428.367 254.543 428.658 253.294L428.476 253.61C428.298 253.912 428.202 254.255 428.198 254.606C428.194 254.957 428.282 255.303 428.454 255.609C428.626 255.915 428.876 256.17 429.178 256.349C429.48 256.528 429.823 256.625 430.174 256.629C431.413 256.57 432.627 256.257 433.741 255.711C434.855 255.165 435.844 254.396 436.65 253.452C438.966 250.772 439.887 247.171 440.494 243.751C442.361 233.043 441.997 221.924 444.956 211.483" fill="#263238"/>
<path d="M392.534 278.941C393.369 282.589 394.979 286.014 397.255 288.985C399.531 291.955 402.42 294.401 405.724 296.156C409.029 297.911 412.673 298.935 416.408 299.158C420.144 299.38 423.883 298.797 427.373 297.446C433.654 295.021 438.723 290.292 443.61 285.671C444.485 290.931 444.244 296.316 442.903 301.476C441.563 306.637 439.153 311.458 435.829 315.627C432.505 319.795 428.342 323.219 423.609 325.675C418.877 328.131 413.681 329.565 408.359 329.884C400.319 330.369 391.685 327.919 386.629 321.65C383.1 317.285 381.681 311.5 381.778 305.886C382.023 300.263 383.094 294.706 384.955 289.394C386.386 284.811 388.654 279.693 393.286 278.42" fill="#407BFF"/>
<path d="M450.061 222.493C454.912 225.1 457.507 230.557 458.441 235.941C459.374 241.325 458.901 246.855 459.132 252.3C459.362 257.744 460.405 263.468 463.861 267.7C467.499 272.211 473.259 274.345 478.413 277.098C489.714 283.161 499.027 293.505 502.423 305.898C505.818 318.291 502.738 332.576 493.461 341.489C484.973 349.565 472.725 352.402 461.036 352.402C452.705 352.402 443.549 350.608 438.347 344.096C433.145 337.584 433.497 328.453 435.316 320.425C437.135 312.398 440.469 304.6 440.603 296.367C439.358 301.464 437.188 306.289 434.2 310.603C433.339 311.815 431.872 313.149 430.562 312.446C429.253 311.743 429.653 309.475 430.332 307.959C440.372 285.611 436.88 240.561 442.834 215.884" fill="#263238"/>
<path d="M441.791 219.959C442.094 219.862 453.82 217.643 452.305 229.235C450.789 240.828 439.475 236.923 439.499 236.596C439.524 236.269 441.791 219.959 441.791 219.959Z" fill="#FFBE9D"/>
<path d="M443.61 232.668C443.61 232.668 443.792 232.825 444.119 233.031C444.573 233.298 445.111 233.381 445.623 233.262C446.908 232.971 448.194 231.152 448.521 229.078C448.674 228.086 448.608 227.071 448.327 226.107C448.266 225.73 448.114 225.374 447.883 225.07C447.653 224.766 447.351 224.522 447.005 224.361C446.788 224.284 446.55 224.281 446.331 224.354C446.111 224.426 445.922 224.57 445.793 224.761C445.599 225.064 445.635 225.307 445.575 225.319C445.514 225.331 445.356 225.089 445.502 224.628C445.606 224.348 445.803 224.112 446.06 223.961C446.24 223.852 446.441 223.783 446.649 223.755C446.858 223.728 447.07 223.745 447.272 223.803C447.736 223.96 448.153 224.233 448.482 224.596C448.81 224.959 449.041 225.4 449.152 225.877C449.511 226.946 449.606 228.086 449.431 229.199C449.055 231.528 447.575 233.553 445.793 233.82C445.47 233.871 445.14 233.849 444.827 233.755C444.514 233.66 444.226 233.496 443.986 233.274C443.598 232.946 443.574 232.68 443.61 232.668Z" fill="#EB996E"/>
<path d="M380.553 303.922C381.122 302.684 381.779 301.489 382.518 300.345C384.208 297.547 385.61 294.585 386.701 291.505C387.762 288.421 388.118 285.14 387.744 281.901C387.508 280.571 387.201 279.256 386.823 277.959C387.051 278.255 387.228 278.587 387.344 278.942C387.74 279.871 388.025 280.844 388.193 281.84C388.703 285.149 388.399 288.533 387.308 291.699C386.207 294.826 384.729 297.806 382.906 300.575C382.227 301.642 381.693 302.491 381.245 303.061C380.796 303.631 380.59 303.946 380.553 303.922Z" fill="#263238"/>
<path d="M386.459 290.546C386.289 290.546 385.962 289.552 384.919 288.861C383.876 288.17 382.833 288.17 382.809 287.988C382.785 287.806 383.063 287.782 383.536 287.77C384.163 287.775 384.773 287.974 385.283 288.339C385.796 288.698 386.192 289.2 386.422 289.783C386.58 290.231 386.544 290.522 386.459 290.546Z" fill="#FAFAFA"/>
<path d="M393.953 290.522C393.044 289.501 392.046 288.563 390.97 287.721C389.776 287.052 388.516 286.508 387.211 286.096C387.933 285.996 388.668 286.042 389.372 286.232C390.076 286.421 390.735 286.75 391.309 287.199C392.591 287.919 393.539 289.112 393.953 290.522Z" fill="#FAFAFA"/>
<path d="M398.658 315.126C398.686 313.454 398.922 311.792 399.361 310.179C399.595 308.512 400.039 306.883 400.683 305.328C400.655 307.004 400.419 308.67 399.98 310.288C399.745 311.95 399.301 313.576 398.658 315.126Z" fill="#FAFAFA"/>
<path d="M417.575 318.837C417.272 315.356 417.381 311.851 417.902 308.396C418.222 311.876 418.112 315.383 417.575 318.837Z" fill="#FAFAFA"/>
<path d="M31.3401 372.727L12.6413 454.155L52.1852 454.276L70.4474 382.67L31.3401 372.727Z" fill="#B78876"/>
<path d="M225.531 272.684C221.772 267.652 217.455 262.813 215.478 256.847C214.52 253.961 214.144 250.905 213.125 248.044C212.107 245.182 210.252 242.393 207.414 241.313C204.576 240.234 202.418 241.313 200.575 243.351L187.005 283.04L194.827 313.526C202.636 311.767 212.41 309.682 219.71 306.395C227.01 303.109 231.836 297.846 232.346 289.855C232.697 283.586 229.29 277.729 225.531 272.684Z" fill="#263238"/>
<path d="M102.049 265.675C102.049 265.675 54.8772 286.205 48.9838 295.469C43.0904 304.734 23.6884 370.786 23.6884 370.786L73.4062 385.338L72.5574 454.106H194.427L193.42 332.843L178.141 265.833C178.141 265.833 151.233 264.099 148.735 262.874C146.237 261.649 102.049 265.675 102.049 265.675Z" fill="#407BFF"/>
<path d="M269.683 97.5925C270.071 94.8156 268.118 91.7598 269.525 89.3224C270.455 88.0663 271.785 87.164 273.296 86.7637C274.028 86.4291 274.82 86.2436 275.624 86.218C276.026 86.2116 276.42 86.3231 276.758 86.5386C277.097 86.7542 277.365 87.0644 277.528 87.4307C277.616 87.8944 277.575 88.3732 277.41 88.8155C277.246 89.2578 276.964 89.6469 276.595 89.9408C275.856 90.5215 275.234 91.2375 274.763 92.0508C274.434 94.0468 274.588 96.0926 275.212 98.0169C276.828 102.251 278.168 106.585 279.226 110.992" fill="#B78876"/>
<path d="M259.727 98.5382C259.897 94.3304 263.365 77.7537 263.486 73.5459C266.336 74.419 267.985 77.4506 268.518 80.3851C269.052 83.3197 268.773 86.3392 269.282 89.2737C269.961 93.2148 272.011 96.7678 274.072 100.187C276.134 103.607 278.292 107.087 279.226 110.968C280.16 114.848 283.676 124.937 280.936 127.847" fill="#B78876"/>
<path d="M258.939 126.914L242.071 207.045C241.477 210.683 178.141 265.918 178.141 265.918L190.643 315.866L273.102 235.19C279.056 228.825 282.296 220.391 282.136 211.677L280.73 136.494L258.939 126.914Z" fill="#B78876"/>
<path d="M256.053 99.0475L258.939 126.938L280.766 136.542C280.766 136.542 281.033 134.565 281.979 124.901C283.009 114.254 271.562 109.682 266.457 101.861C264.274 98.5018 264.844 92.3174 263.159 84.6536C262.965 83.7684 261.752 78.4085 261.097 75.5346C260.752 73.9375 259.817 72.5297 258.478 71.5935C257.483 70.9387 256.368 70.6113 255.555 71.5935C254.743 72.5758 256.053 99.0475 256.053 99.0475Z" fill="#B78876"/>
<path d="M269.683 131.546C272.108 129.448 272.69 125.689 271.78 122.573C270.667 119.504 268.91 116.709 266.627 114.375C264.347 112.048 262.43 109.391 260.94 106.493C260.018 104.408 259.581 102.104 258.514 100.054C257.447 98.005 255.64 96.1254 253.361 96.0405C255.192 107.573 255.143 114.23 258.89 126.866" fill="#B78876"/>
<path d="M255.628 109.209C255.628 109.209 255.543 108.894 255.41 108.288C255.277 107.681 255.046 106.675 254.828 105.644C254.306 103.219 253.615 100.127 252.9 96.5738L252.827 96.2342H253.179C253.925 96.207 254.67 96.328 255.369 96.5903C256.068 96.8525 256.709 97.2508 257.253 97.7621C258.918 99.3466 260.103 101.368 260.673 103.595C261.157 105.326 261.794 107.01 262.577 108.627C263.17 109.69 263.886 110.679 264.711 111.574C265.012 111.918 265.257 112.307 265.438 112.726C265.106 112.418 264.798 112.086 264.517 111.732C263.614 110.879 262.831 109.908 262.189 108.846C261.332 107.223 260.633 105.521 260.103 103.765C259.539 101.649 258.407 99.7285 256.829 98.2108C255.845 97.2879 254.539 96.7872 253.191 96.8163L253.482 96.4525C254.949 103.753 255.895 109.221 255.628 109.209Z" fill="#7C5142"/>
<path d="M265.438 102.116C264.558 98.3645 263.886 94.5672 263.425 90.7415C262.752 86.946 262.286 83.1164 262.031 79.27C262.917 83.0243 263.589 86.826 264.044 90.6566C264.717 94.4481 265.183 98.2736 265.438 102.116Z" fill="#7C5142"/>
<path d="M272.387 103.061C272.387 103.061 272.472 103.183 272.544 103.486H272.362C271.461 100.891 270.724 98.2424 270.155 95.5551C269.634 93.2147 269.258 91.0805 269.028 89.4919C268.84 88.6609 268.767 87.8083 268.809 86.9575C268.991 86.9575 269.731 90.7288 270.774 95.4459C271.611 99.2172 272.387 102.394 272.544 103.461H272.362C272.35 103.207 272.35 103.061 272.387 103.061Z" fill="#7C5142"/>
<path d="M276.692 118.425C276.595 118.425 276.158 117.795 275.285 116.861C272.978 114.41 269.847 112.899 266.493 112.617C265.792 112.623 265.091 112.579 264.395 112.484C265.067 112.223 265.787 112.116 266.505 112.168C268.253 112.19 269.975 112.596 271.548 113.357C273.122 114.117 274.509 115.214 275.612 116.57C276.109 117.098 276.478 117.733 276.692 118.425Z" fill="#7C5142"/>
<path d="M260.915 129.121C260.315 128.077 259.831 126.971 259.472 125.822C258.475 123.101 257.641 120.324 256.974 117.504C256.296 114.707 255.786 111.873 255.446 109.015C255.248 107.814 255.175 106.594 255.228 105.377C255.532 106.536 255.751 107.716 255.883 108.906C256.247 111.077 256.804 114.084 257.581 117.395C258.357 120.705 259.23 123.603 259.897 125.713C260.315 126.824 260.655 127.963 260.915 129.121Z" fill="#7C5142"/>
<path d="M163.335 267.361C164.415 265.706 166.091 264.531 168.015 264.08C169.939 263.628 171.963 263.935 173.666 264.935C182.567 257.66 191.674 250.602 200.575 243.363C197.664 257.914 195.724 278.202 202.236 291.516C202.236 291.516 210.446 306.771 223.518 304.443L211.852 315.866L193.457 332.928" fill="#407BFF"/>
<path d="M160.449 274.151C160.463 272.199 161.058 270.295 162.159 268.683C163.088 266.961 164.506 265.552 166.233 264.632C163.493 267.235 161.497 270.521 160.449 274.151Z" fill="#263238"/>
<path d="M170.065 283.125C169.56 282.317 169.214 281.42 169.046 280.482C168.523 278.233 168.46 275.901 168.863 273.627C169.265 271.353 170.124 269.185 171.387 267.252C171.868 266.425 172.502 265.697 173.254 265.105C173.339 265.178 172.636 266.003 171.775 267.531C170.655 269.464 169.879 271.577 169.483 273.776C169.103 275.979 169.103 278.23 169.483 280.433C169.786 282.01 170.162 283.028 170.065 283.125Z" fill="#263238"/>
<path d="M214.617 314.265C213.722 314.822 212.744 315.231 211.719 315.478C208.917 316.153 205.986 316.065 203.23 315.223C199.149 313.927 195.578 311.382 193.02 307.947C189.948 303.735 187.875 298.879 186.957 293.747C185.244 284.506 184.755 275.08 185.502 265.711C185.781 262.073 186.181 259.236 186.52 257.223C186.678 256.228 186.824 255.464 186.933 254.943C186.97 254.674 187.035 254.41 187.127 254.155C187.135 254.428 187.111 254.7 187.054 254.967L186.763 257.259C186.508 259.248 186.169 262.11 185.95 265.748C185.33 275.076 185.876 284.445 187.575 293.638C188.483 298.637 190.492 303.372 193.457 307.498C195.909 310.898 199.365 313.443 203.34 314.774C206.023 315.639 208.885 315.793 211.646 315.223C212.657 314.97 213.649 314.65 214.617 314.265Z" fill="#FAFAFA"/>
<path d="M73.6366 405.807C73.4669 405.807 73.3214 388.563 73.3214 367.306C73.3214 346.048 73.4669 328.805 73.6366 328.805C73.8064 328.805 73.9519 346.036 73.9519 367.306C73.9519 388.575 73.8185 405.807 73.6366 405.807Z" fill="#263238"/>
<path d="M72.6665 315.503C72.5331 315.503 72.5695 313.781 71.9753 311.101C71.6213 309.535 71.1136 308.008 70.4595 306.541C69.6446 304.757 68.6404 303.066 67.4643 301.497C66.2555 299.949 64.8856 298.535 63.3777 297.277C62.1362 296.262 60.8003 295.369 59.3882 294.609C56.9629 293.336 55.2774 292.911 55.3137 292.79C55.7276 292.811 56.1362 292.893 56.5264 293.033C56.986 293.147 57.436 293.297 57.8724 293.481C58.4673 293.686 59.0468 293.933 59.6065 294.221C61.0632 294.934 62.4376 295.804 63.7051 296.816C65.2619 298.087 66.6731 299.527 67.913 301.109C69.1232 302.718 70.1407 304.464 70.9446 306.311C71.605 307.821 72.097 309.398 72.4118 311.016C72.5363 311.632 72.6213 312.256 72.6665 312.883C72.7232 313.354 72.7475 313.828 72.7392 314.302C72.7613 314.704 72.7369 315.107 72.6665 315.503Z" fill="#263238"/>
<path d="M155.72 265.142C155.82 265.478 155.889 265.823 155.926 266.172C156.089 267.156 156.194 268.148 156.241 269.143C156.386 272.822 155.873 276.498 154.725 279.996C153.017 285.214 149.988 289.9 145.934 293.602C140.848 298.046 134.462 300.726 127.729 301.242C120.995 301.758 114.275 300.081 108.572 296.464C104.014 293.413 100.321 289.236 97.8528 284.338C96.1995 281.05 95.1443 277.494 94.7364 273.836C94.6378 272.845 94.5933 271.849 94.603 270.853C94.5737 270.506 94.5737 270.157 94.603 269.81C94.6599 270.151 94.6883 270.496 94.6879 270.841C94.719 271.831 94.7999 272.818 94.9304 273.8C95.4271 277.405 96.5343 280.898 98.2045 284.131C100.679 288.931 104.34 293.018 108.839 296.003C114.439 299.524 121.02 301.156 127.615 300.661C134.211 300.166 140.474 297.568 145.485 293.25C149.495 289.625 152.509 285.033 154.24 279.911C155.402 276.463 155.976 272.843 155.938 269.204C155.938 267.918 155.829 266.924 155.732 266.245C155.635 265.566 155.707 265.154 155.72 265.142Z" fill="#263238"/>
<path d="M72.5938 370.349C72.5938 370.519 62.5168 367.354 50.2207 363.292C37.9246 359.23 27.9932 355.798 28.0538 355.628C28.1145 355.458 38.1187 358.623 50.4269 362.686C62.7351 366.748 72.6423 370.18 72.5938 370.349Z" fill="#FAFAFA"/>
<path d="M192.244 353.518C192.244 353.7 165.506 353.955 132.522 354.088C99.5384 354.222 72.7878 354.197 72.7878 354.088C72.7878 353.979 99.5263 353.652 132.522 353.518C165.518 353.385 192.244 353.349 192.244 353.518Z" fill="#FAFAFA"/>
<path d="M192.85 364.08C192.85 364.25 165.966 364.395 132.825 364.395C99.6839 364.395 72.7878 364.25 72.7878 364.08C72.7878 363.91 99.6597 363.765 132.825 363.765C165.991 363.765 192.85 363.898 192.85 364.08Z" fill="#FAFAFA"/>
<path d="M176.383 376.91C176.301 377.247 176.187 377.576 176.043 377.892C175.776 378.571 175.413 379.493 174.964 380.657L174.164 382.645C173.848 383.373 173.472 384.137 173.084 384.974C172.284 386.623 171.46 388.539 170.308 390.552L168.561 393.729C167.955 394.832 167.227 395.924 166.524 397.088C165.142 399.428 163.444 401.781 161.674 404.291C157.736 409.625 153.398 414.651 148.698 419.327C143.932 423.938 138.82 428.179 133.407 432.012C130.861 433.709 128.472 435.371 126.131 436.704C124.919 437.384 123.852 438.087 122.736 438.681L119.486 440.354C117.461 441.458 115.521 442.258 113.86 443.022C113.023 443.386 112.247 443.75 111.519 444.053L109.506 444.817L106.729 445.848C106.409 445.985 106.076 446.091 105.735 446.163C106.038 445.992 106.354 445.846 106.681 445.726L109.421 444.587L111.398 443.774C112.126 443.459 112.889 443.083 113.714 442.695C115.363 441.907 117.279 441.082 119.28 439.954L122.469 438.257C123.573 437.65 124.676 436.935 125.84 436.256C128.181 434.91 130.545 433.236 133.116 431.539C143.918 423.917 153.417 414.601 161.249 403.951C163.007 401.465 164.717 399.101 166.1 396.809C166.815 395.657 167.555 394.578 168.173 393.486L169.932 390.333C171.144 388.357 171.957 386.453 172.781 384.816C173.181 383.991 173.582 383.24 173.909 382.524C174.236 381.809 174.503 381.154 174.758 380.56C175.255 379.42 175.655 378.522 175.97 377.843C176.092 377.525 176.229 377.214 176.383 376.91Z" fill="#263238"/>
<g opacity="0.3">
<path d="M171.46 387.411C163.311 397.33 154.774 404.521 142.805 409.154C137.069 411.361 131.067 412.876 125.513 415.508C119.959 418.139 114.721 422.104 112.174 427.719C110.246 432.06 111.18 438.633 115.812 439.578C117.611 439.799 119.437 439.518 121.087 438.766C144.794 430.168 160.376 408.45 171.387 387.411" fill="black"/>
</g>
<path d="M86.6603 171.66C81.543 175.674 81.2034 183.18 81.4581 189.68C81.7127 196.18 81.7855 203.577 77.0441 208.063C73.1637 211.762 66.373 213.132 65.2573 218.383C64.975 219.62 65.0879 220.914 65.5801 222.084C66.0724 223.254 66.9191 224.239 68.0011 224.902C69.0832 225.565 70.3459 225.872 71.6114 225.779C72.877 225.686 74.0815 225.199 75.0554 224.385C73.4062 228.496 74.158 233.759 77.6625 236.512C81.167 239.264 87.2908 237.955 88.5762 233.735C88.3775 234.433 88.3227 235.164 88.4151 235.884C88.5075 236.604 88.7452 237.298 89.1137 237.923C89.4822 238.548 89.9739 239.092 90.559 239.522C91.1441 239.952 91.8103 240.258 92.5173 240.422C93.2243 240.587 93.9573 240.606 94.6719 240.478C95.3865 240.351 96.0677 240.08 96.6744 239.681C97.281 239.283 97.8004 238.765 98.201 238.16C98.6016 237.554 98.8751 236.874 99.0048 236.16" fill="#263238"/>
<path d="M160.922 218.722C161.166 219.574 161.582 220.366 162.145 221.051C162.708 221.735 163.406 222.296 164.195 222.699C164.984 223.102 165.847 223.338 166.732 223.394C167.616 223.449 168.502 223.322 169.335 223.02C170.168 222.719 170.931 222.249 171.575 221.64C172.219 221.032 172.73 220.297 173.079 219.483C173.427 218.668 173.604 217.79 173.598 216.904C173.593 216.018 173.406 215.143 173.048 214.332C172.042 211.81 169.41 209.906 169.349 207.202C169.192 203.928 172.636 201.758 175.655 200.484C178.675 199.211 182.216 197.513 182.688 194.276C183.161 191.038 180.457 188.552 178.202 186.333C175.946 184.114 173.776 180.743 175.364 178.002C176.177 176.608 177.789 175.856 178.832 174.631C181.185 171.915 180.239 167.355 177.523 165.039C174.806 162.723 170.914 162.189 167.361 162.614C163.808 163.038 160.412 164.372 156.932 165.233C151.161 166.626 145.164 166.806 139.319 165.763C133.475 164.719 127.911 162.474 122.979 159.17" fill="#263238"/>
<path d="M90.1405 196.664L102.618 268.986C103.135 272.013 104.246 274.907 105.887 277.503C107.528 280.098 109.667 282.343 112.179 284.108C114.692 285.874 117.529 287.124 120.527 287.788C123.525 288.452 126.625 288.515 129.648 287.975C135.375 286.95 140.511 283.817 144.044 279.193C147.577 274.57 149.25 268.791 148.735 262.995C148.165 256.58 147.68 251.269 147.68 251.269C147.68 251.269 165.796 246.613 164.232 228.229C163.468 219.328 160.425 201.127 157.466 184.684C155.932 176.173 151.25 168.552 144.351 163.337C137.453 158.121 128.844 155.694 120.238 156.538L118.468 156.708C113.957 157.415 109.634 159.018 105.754 161.423C101.873 163.828 98.5139 166.985 95.8736 170.71C93.2333 174.434 91.3657 178.649 90.381 183.107C89.3964 187.565 89.3146 192.174 90.1405 196.664Z" fill="#B78876"/>
<path d="M153.597 196.555C153.676 197.24 153.483 197.927 153.058 198.47C152.634 199.012 152.013 199.366 151.33 199.454C150.999 199.514 150.659 199.508 150.331 199.434C150.002 199.361 149.692 199.222 149.418 199.026C149.144 198.831 148.913 198.582 148.737 198.295C148.561 198.008 148.445 197.689 148.395 197.356C148.316 196.672 148.51 195.984 148.934 195.441C149.359 194.899 149.98 194.545 150.663 194.458C150.994 194.397 151.334 194.404 151.662 194.477C151.991 194.55 152.301 194.689 152.575 194.885C152.848 195.08 153.08 195.329 153.256 195.616C153.431 195.903 153.548 196.223 153.597 196.555Z" fill="#263238"/>
<path d="M154.398 194.045C154.107 194.409 151.973 193.136 149.147 193.415C146.322 193.694 144.381 195.318 144.042 195.003C143.884 194.858 144.151 194.215 144.988 193.463C146.13 192.494 147.545 191.905 149.038 191.778C150.507 191.631 151.984 191.954 153.258 192.699C154.192 193.281 154.543 193.875 154.398 194.045Z" fill="#263238"/>
<path d="M125.949 199.793C126.018 200.476 125.819 201.159 125.394 201.697C124.968 202.236 124.35 202.588 123.67 202.679C123.339 202.738 123 202.73 122.672 202.656C122.344 202.582 122.034 202.443 121.761 202.248C121.488 202.052 121.256 201.804 121.08 201.518C120.904 201.232 120.787 200.913 120.735 200.581C120.663 199.898 120.859 199.214 121.282 198.673C121.705 198.132 122.322 197.777 123.003 197.683C123.335 197.624 123.676 197.632 124.005 197.707C124.335 197.782 124.646 197.921 124.92 198.118C125.195 198.314 125.427 198.564 125.604 198.851C125.781 199.139 125.898 199.459 125.949 199.793Z" fill="#263238"/>
<path d="M126.665 197.271C126.374 197.647 124.24 196.373 121.414 196.652C118.589 196.931 116.661 198.556 116.309 198.241C116.151 198.095 116.418 197.453 117.255 196.701C118.399 195.736 119.814 195.147 121.305 195.015C122.774 194.863 124.253 195.186 125.525 195.937C126.459 196.519 126.762 197.113 126.665 197.271Z" fill="#263238"/>
<path d="M138.973 217.243C138.973 217.073 140.671 216.6 143.472 215.958C144.187 215.812 144.867 215.606 144.939 215.097C144.919 214.349 144.678 213.623 144.248 213.011L141.568 207.724C137.845 200.181 135.081 193.961 135.384 193.815C135.687 193.67 138.949 199.66 142.66 207.154L145.242 212.49C145.78 213.314 146.008 214.302 145.885 215.279C145.812 215.551 145.677 215.802 145.489 216.013C145.302 216.224 145.068 216.387 144.806 216.491C144.414 216.635 144.007 216.732 143.593 216.782C142.078 217.123 140.526 217.278 138.973 217.243Z" fill="#263238"/>
<path d="M126.313 186.114C126.107 186.914 123.257 186.817 119.983 187.545C116.709 188.273 114.102 189.437 113.605 188.758C113.374 188.454 113.763 187.678 114.818 186.83C116.164 185.766 117.743 185.034 119.426 184.695C121.104 184.326 122.846 184.363 124.506 184.804C125.731 185.205 126.398 185.75 126.313 186.114Z" fill="#263238"/>
<path d="M152.567 185.957C152.13 186.648 150.141 186.175 147.716 186.369C145.291 186.563 143.436 187.23 142.866 186.599C142.635 186.296 142.866 185.617 143.69 184.926C144.777 184.067 146.103 183.567 147.486 183.495C148.864 183.383 150.242 183.705 151.427 184.417C152.409 184.999 152.749 185.629 152.567 185.957Z" fill="#263238"/>
<path d="M108.136 174.546L108.039 174.643C105.337 177.236 103.738 180.771 103.576 184.513C103.576 184.647 103.576 184.78 103.576 184.889C103.37 190.213 104.013 195.536 103.758 200.848C103.504 206.159 102.206 211.664 98.6774 215.654C97.2344 217.291 94.5181 218.588 93.0387 216.976C92.5239 216.296 92.2127 215.485 92.1414 214.635C89.9344 202.072 85.3749 191.171 84.1138 177.917C83.9328 176.144 84.1785 174.354 84.8304 172.696C85.4822 171.038 86.5213 169.56 87.8608 168.385C90.4316 166.118 93.6208 163.729 96.8464 164.893C100.072 166.057 104.619 171.429 107.251 173.636" fill="#263238"/>
<path d="M97.1495 204.376C96.8221 204.279 84.1501 201.878 85.775 214.405C87.4 226.931 99.6475 222.723 99.6233 222.36C99.599 221.996 97.1495 204.376 97.1495 204.376Z" fill="#B78876"/>
<path d="M95.2336 218.115C95.2336 218.115 95.0395 218.297 94.6879 218.504C94.4471 218.651 94.1796 218.749 93.9008 218.793C93.622 218.836 93.3372 218.825 93.063 218.758C91.6806 218.443 90.286 216.478 89.9344 214.235C89.7622 213.162 89.8327 212.064 90.1405 211.022C90.2096 210.615 90.3757 210.23 90.6248 209.901C90.8738 209.572 91.1985 209.307 91.5714 209.13C91.8134 209.035 92.0808 209.027 92.3283 209.106C92.5758 209.186 92.7882 209.348 92.9296 209.566C93.1478 209.894 93.0993 210.161 93.1721 210.173C93.2449 210.185 93.4146 209.93 93.2449 209.421C93.1352 209.118 92.9256 208.861 92.6507 208.693C92.2808 208.49 91.8477 208.433 91.438 208.536C90.9357 208.705 90.4849 209.001 90.1284 209.393C89.7719 209.786 89.5215 210.263 89.4008 210.779C89.0068 211.949 88.9028 213.198 89.0977 214.417C89.51 216.927 91.1106 219.122 92.9902 219.413C93.3394 219.47 93.6969 219.446 94.0353 219.343C94.3738 219.24 94.6841 219.06 94.9425 218.819C95.2336 218.419 95.2336 218.128 95.2336 218.115Z" fill="#7C5142"/>
<path d="M96.5917 166.882C92.9538 162.153 100.787 154.101 106.802 151.542C112.817 148.984 121.293 151.203 127.671 152.646C131.685 153.568 135.748 154.986 139.798 154.416C142.513 153.874 145.133 152.93 147.571 151.615C150.006 150.279 152.688 149.454 155.453 149.19C156.838 149.085 158.225 149.36 159.465 149.986C160.704 150.612 161.749 151.566 162.486 152.743C163.771 155.168 162.619 158.806 159.927 159.473C160.755 158.903 161.709 158.543 162.707 158.423C163.705 158.304 164.717 158.428 165.656 158.786C166.596 159.143 167.434 159.724 168.099 160.477C168.765 161.23 169.238 162.133 169.477 163.11C169.716 164.086 169.715 165.105 169.473 166.081C169.232 167.056 168.757 167.959 168.089 168.71C167.422 169.462 166.582 170.04 165.642 170.395C164.702 170.751 163.69 170.873 162.692 170.751C164.353 169.223 167.312 171.199 167.312 173.443C167.312 175.686 165.433 177.529 163.468 178.633C158.448 181.446 152.264 181.3 146.661 180.003C141.059 178.705 135.748 176.365 130.169 174.91C124.591 173.455 115.242 170.835 110.028 173.273C106.196 175.055 103.892 180.112 101.539 179.336C100.426 178.874 99.4368 178.157 98.6512 177.243C97.8656 176.329 97.3055 175.243 97.0161 174.073C96.4744 171.721 96.3187 169.296 96.5553 166.894" fill="#263238"/>
<path d="M97.3072 206.523C97.4635 213.184 98.2265 219.816 99.5869 226.338C100.946 232.882 104.051 238.937 108.572 243.86C114.636 250.081 122.591 255.987 131.2 257.454C140.598 259.006 152.094 257.042 159.745 251.391C163.383 248.711 166.015 242.902 164.887 238.513C166.427 237.786 167.745 236.661 168.705 235.254C169.664 233.846 170.23 232.208 170.344 230.509C170.538 227.114 168.464 222.87 165.784 222.421C167.797 222.081 168.379 218.88 167.615 217.073C166.852 215.266 164.196 214.721 162.183 215.109C160.193 215.63 158.343 216.582 156.762 217.898C155.191 219.215 153.418 220.272 151.512 221.026C145.012 223.136 138.427 217.389 131.6 217.667C125.428 217.91 119.935 223.039 113.811 222.178C112.111 221.854 110.498 221.176 109.078 220.188C107.657 219.2 106.46 217.924 105.565 216.443C103.673 213.544 104.498 202.837 103.758 199.466" fill="#263238"/>
<g opacity="0.6">
<path d="M146.843 235.396C146.332 235.276 145.83 235.122 145.339 234.935C144.152 234.595 142.902 234.533 141.686 234.754C140.471 234.975 139.323 235.472 138.33 236.208C137.554 236.766 137.118 237.215 137.118 237.154C137.118 237.093 137.36 236.56 138.1 235.941C139.096 235.064 140.313 234.477 141.619 234.242C142.925 234.006 144.27 234.133 145.509 234.607C146.407 234.911 146.879 235.335 146.843 235.396Z" fill="#455A64"/>
</g>
<path d="M133.565 221.463C134.026 221.39 134.329 224.458 137.203 226.313C140.077 228.169 143.266 227.586 143.339 228.011C143.399 228.193 142.672 228.678 141.289 228.848C139.498 229.058 137.69 228.628 136.184 227.635C134.742 226.672 133.733 225.184 133.371 223.488C133.092 222.251 133.359 221.463 133.565 221.463Z" fill="white"/>
<path d="M124.446 255.405C124.72 255.467 124.985 255.565 125.234 255.696C125.755 255.89 126.519 256.156 127.526 256.435C130.378 257.206 133.306 257.666 136.257 257.806C138.278 257.925 140.305 257.884 142.32 257.684C144.644 257.476 146.939 257.029 149.171 256.35C151.636 255.614 153.986 254.541 156.156 253.161C158.516 251.738 160.575 249.868 162.219 247.656C164.172 245.051 165.041 241.792 164.645 238.561V238.306L164.863 238.209C166.371 237.508 167.677 236.436 168.658 235.093C169.134 234.459 169.541 233.776 169.871 233.056C170.161 232.356 170.341 231.616 170.405 230.861C170.537 229.495 170.341 228.117 169.835 226.841C169.329 225.565 168.527 224.429 167.494 223.524L167.312 223.379L167.458 223.197C168.005 222.503 168.362 221.678 168.493 220.805C168.625 219.931 168.527 219.038 168.21 218.213C167.96 217.588 167.584 217.021 167.104 216.549C166.623 216.078 166.05 215.711 165.421 215.473C164.617 215.152 163.747 215.031 162.886 215.121C162.292 215.194 162.001 215.303 161.989 215.266C162.269 215.133 162.567 215.043 162.874 215C164.026 214.813 165.207 215.013 166.234 215.568C167.26 216.123 168.074 217.002 168.549 218.068C168.908 218.957 169.03 219.924 168.902 220.874C168.775 221.824 168.402 222.725 167.822 223.488V223.161C168.929 224.106 169.796 225.303 170.348 226.65C170.901 227.998 171.124 229.458 170.999 230.909C170.937 231.743 170.744 232.561 170.429 233.335C170.077 234.095 169.651 234.818 169.156 235.493C168.123 236.933 166.736 238.082 165.13 238.828L165.311 238.464C165.798 241.86 164.927 245.311 162.886 248.068C161.194 250.345 159.072 252.269 156.641 253.731C154.427 255.14 152.022 256.222 149.499 256.945C147.228 257.627 144.89 258.066 142.526 258.254C140.472 258.417 138.408 258.417 136.354 258.254C133.38 258.068 130.437 257.535 127.587 256.666C126.814 256.425 126.056 256.138 125.319 255.805C125.014 255.703 124.722 255.569 124.446 255.405Z" fill="#455A64"/>
<path d="M69.4773 223.403C69.2452 223.339 69.0271 223.232 68.8346 223.088C68.2882 222.678 67.868 222.124 67.622 221.487C67.2122 220.462 67.1234 219.337 67.3673 218.261C67.7499 216.836 68.605 215.584 69.7926 214.708C71.1878 213.657 72.7439 212.838 74.4006 212.283C76.2572 211.7 78.0523 210.936 79.7604 210.003C81.5578 208.865 82.9662 207.207 83.7985 205.25C84.7114 203.143 85.1977 200.876 85.2294 198.58C85.3264 193.839 84.235 189.34 84.1137 185.156C83.9925 180.973 84.7201 177.068 86.6239 174.449C88.0498 172.349 90.2148 170.864 92.687 170.29C93.3575 170.156 94.0441 170.123 94.7243 170.193C94.9616 170.22 95.1967 170.265 95.4276 170.326C94.5292 170.283 93.6289 170.352 92.7477 170.532C90.3647 171.162 88.2969 172.647 86.9392 174.704C85.1687 177.25 84.429 181.034 84.6473 185.132C84.8656 189.231 85.8599 193.73 85.8599 198.605C85.8095 200.988 85.286 203.337 84.3199 205.517C83.4284 207.582 81.9262 209.326 80.015 210.513C78.2602 211.462 76.4111 212.226 74.4976 212.792C72.888 213.301 71.3695 214.063 69.9987 215.048C68.8727 215.845 68.0482 216.998 67.6584 218.322C67.3941 219.331 67.4406 220.396 67.7917 221.378C68.1114 222.222 68.7048 222.935 69.4773 223.403Z" fill="#455A64"/>
<path d="M160.388 159.267C160.56 159.162 160.743 159.077 160.934 159.012C161.164 158.909 161.404 158.828 161.649 158.77C161.978 158.673 162.315 158.604 162.656 158.564C163.787 158.44 164.932 158.576 166.004 158.961C167.075 159.345 168.045 159.968 168.84 160.783C169.635 161.849 170.211 163.063 170.534 164.354C170.856 165.644 170.92 166.986 170.72 168.301C170.482 169.932 169.919 171.499 169.065 172.909C168.211 174.319 167.083 175.544 165.748 176.511C162.673 178.749 158.999 180.016 155.198 180.148C151.078 180.311 146.956 179.87 142.963 178.839C136.62 177.282 130.602 174.618 125.186 170.969C122.87 169.377 120.438 167.963 117.91 166.737C115.695 165.712 113.311 165.104 110.877 164.942C107.33 164.697 103.779 165.356 100.557 166.858C98.2894 167.925 97.2102 168.847 97.1617 168.774C98.1576 167.917 99.2626 167.195 100.448 166.628C103.689 165.025 107.291 164.289 110.901 164.493C113.414 164.622 115.882 165.219 118.177 166.252C120.741 167.474 123.21 168.889 125.561 170.484C130.939 174.061 136.897 176.678 143.169 178.22C147.1 179.252 151.16 179.71 155.222 179.579C158.907 179.45 162.472 178.235 165.469 176.086C166.756 175.166 167.847 174 168.679 172.655C169.512 171.311 170.069 169.814 170.32 168.253C170.533 166.989 170.494 165.695 170.205 164.446C169.916 163.197 169.382 162.018 168.634 160.977C167.882 160.188 166.964 159.576 165.948 159.184C164.931 158.792 163.84 158.63 162.753 158.709C161.951 158.834 161.161 159.021 160.388 159.267Z" fill="#455A64"/>
<path d="M153.961 148.583C153.96 149.538 153.766 150.483 153.391 151.36C152.34 153.773 150.513 155.766 148.201 157.023C146.64 157.932 144.927 158.548 143.145 158.842C141.102 159.14 139.027 159.14 136.984 158.842C132.655 158.297 128.181 156.599 123.476 155.132C118.771 153.664 114.029 152.791 109.858 153.689C106.162 154.496 102.814 156.448 100.29 159.267C98.5712 161.147 97.2548 163.359 96.4219 165.766C95.8641 167.488 95.755 168.495 95.6822 168.483C95.6526 168.241 95.6526 167.997 95.6822 167.755C95.7793 167.058 95.9293 166.368 96.1309 165.694C96.8842 163.203 98.1711 160.906 99.9022 158.964C102.451 156.019 105.876 153.971 109.676 153.119C113.993 152.161 118.868 153.046 123.597 154.525C128.326 156.005 132.764 157.702 136.997 158.26C138.987 158.551 141.009 158.551 142.999 158.26C144.728 157.999 146.396 157.428 147.922 156.575C150.182 155.389 151.999 153.505 153.1 151.203C153.457 150.354 153.744 149.478 153.961 148.583Z" fill="#455A64"/>
<path d="M245.745 71.8362C245.636 71.9696 238.821 66.4279 230.515 59.4553C222.208 52.4827 215.575 46.662 215.696 46.5771C215.818 46.4923 222.62 51.9855 230.927 58.9702C239.233 65.955 245.866 71.7028 245.745 71.8362Z" fill="#263238"/>
<path d="M280.329 63.5299C280.16 63.5299 279.468 52.7617 278.802 39.4591C278.135 26.1566 277.722 15.3642 277.892 15.3521C278.062 15.3399 278.753 26.1202 279.432 39.4349C280.111 52.7496 280.499 63.5299 280.329 63.5299Z" fill="#263238"/>
<path d="M258.308 55.8298C258.138 55.8298 256.016 49.7667 253.555 42.0907C251.093 34.4148 249.238 28.2182 249.407 28.1697C249.577 28.1212 251.699 34.2329 254.161 41.8967C256.623 49.5605 258.466 55.7813 258.308 55.8298Z" fill="#263238"/>
<path d="M238.676 83.2107C235.482 82.0874 232.36 80.7713 229.326 79.2697C226.203 77.9531 223.166 76.4425 220.232 74.7466C223.425 75.8699 226.547 77.186 229.581 78.6876C232.703 80.007 235.74 81.5176 238.676 83.2107Z" fill="#263238"/>
<path d="M206.796 69.2777C206.796 69.4475 205.765 69.4717 204.54 69.2777C203.315 69.0837 202.345 68.8654 202.369 68.6957C202.394 68.5259 203.4 68.5016 204.613 68.6957C205.825 68.8897 206.796 69.108 206.796 69.2777Z" fill="#263238"/>
<path d="M250.196 20.3358C250.014 20.3358 249.88 19.3535 249.88 18.1288C249.88 16.904 250.014 15.9097 250.196 15.9097C250.377 15.9097 250.511 16.904 250.511 18.1288C250.511 19.3535 250.365 20.3358 250.196 20.3358Z" fill="#263238"/>
<path d="M323.208 37.4584C323.341 37.5797 317.739 43.9945 310.718 51.7917C303.697 59.589 297.9 65.8219 297.743 65.7006C297.585 65.5793 303.212 59.1767 310.233 51.3673C317.254 43.558 323.087 37.3493 323.208 37.4584Z" fill="#263238"/>
<path d="M332.121 28.6426C332.242 28.7639 331.599 29.6127 330.678 30.5343C329.756 31.4559 328.92 32.0865 328.798 31.9652C328.677 31.8439 329.32 30.9951 330.241 30.0856C331.163 29.1762 332 28.4728 332.121 28.6426Z" fill="#263238"/>
<path d="M353.73 59.686C353.21 60.0606 352.658 60.3893 352.081 60.6683C351.002 61.2625 349.425 62.0992 347.461 63.0935C343.52 65.0822 338.002 67.6773 331.793 70.2602C325.585 72.8431 319.849 74.9045 315.653 76.3233C313.568 77.0145 311.87 77.536 310.682 77.8876C310.08 78.1061 309.459 78.2645 308.826 78.3605C309.4 78.0768 309.996 77.8415 310.609 77.6572L315.459 75.8989C319.607 74.4074 325.294 72.261 331.502 69.7145C337.711 67.168 343.229 64.6093 347.267 62.7297L351.972 60.4985C352.537 60.1847 353.125 59.9131 353.73 59.686Z" fill="#263238"/>
<path d="M336.001 89.541C334.965 90.0025 333.884 90.356 332.776 90.596C330.763 91.1538 327.925 91.8086 324.797 92.3543C321.668 92.9 318.733 93.2032 316.684 93.3487C315.562 93.4915 314.427 93.5119 313.301 93.4093C314.402 93.1555 315.521 92.9853 316.648 92.9C318.709 92.6454 321.559 92.2573 324.687 91.6874C327.816 91.1174 330.641 90.5718 332.679 90.1352C333.766 89.8353 334.878 89.6364 336.001 89.541Z" fill="#263238"/>
<path d="M352.117 86.5575C349.808 86.9779 347.442 86.9779 345.132 86.5575C347.442 86.1371 349.808 86.1371 352.117 86.5575Z" fill="#263238"/>
<path d="M260.976 387.411C262.683 387.701 264.314 388.332 265.772 389.265C267.23 390.198 268.486 391.415 269.464 392.844C271.396 395.729 272.64 399.019 273.102 402.46C274.206 409.057 272.423 416.551 269.974 422.784C263.243 419.619 259.654 411.785 258.09 407.686C255.665 401.223 255.046 388.017 260.915 387.411" fill="#407BFF"/>
<path d="M279.953 432.108C278.94 430.455 278.383 428.564 278.338 426.625C278.293 424.687 278.763 422.771 279.699 421.073C280.659 419.391 281.945 417.918 283.481 416.739C285.018 415.561 286.775 414.701 288.648 414.21C289.486 413.89 290.383 413.757 291.277 413.82C292.172 413.883 293.041 414.14 293.826 414.574C294.479 415.097 294.981 415.786 295.28 416.568C295.578 417.351 295.662 418.198 295.524 419.024C295.223 420.674 294.496 422.217 293.414 423.499C289.897 428.034 285.677 431.769 279.953 432.108Z" fill="#407BFF"/>
<path d="M278.256 453.015C278.116 452.567 278.038 452.102 278.025 451.632C277.941 450.735 277.819 449.425 277.734 447.813C277.428 443.594 277.685 439.352 278.498 435.201C279.369 431.008 281.35 427.126 284.234 423.96C285.124 423.031 286.126 422.216 287.217 421.535C287.582 421.256 287.992 421.042 288.43 420.904C287.051 421.939 285.761 423.087 284.574 424.336C281.884 427.506 280.032 431.3 279.19 435.371C278.387 439.467 278.061 443.642 278.219 447.813C278.336 449.544 278.348 451.282 278.256 453.015Z" fill="#263238"/>
<path d="M262.577 397.464C262.916 398.16 263.2 398.881 263.425 399.622C263.923 401.029 264.638 403.066 265.438 405.601C267.1 410.669 269.27 417.727 271.501 425.548C273.733 433.37 275.527 440.524 276.764 445.714C277.383 448.309 277.856 450.407 278.159 451.875C278.361 452.621 278.499 453.384 278.571 454.154C278.275 453.441 278.043 452.702 277.88 451.947C277.455 450.371 276.91 448.309 276.255 445.884C274.885 440.731 272.981 433.612 270.774 425.791C268.567 417.969 266.481 410.9 264.953 405.795L263.171 399.731C262.91 398.993 262.711 398.235 262.577 397.464Z" fill="#263238"/>
<path d="M270.992 438.341C269.3 434.633 266.75 431.38 263.554 428.85C260.358 426.32 256.606 424.586 252.609 423.79C250.571 423.402 248.061 423.45 246.921 425.196C245.782 426.943 246.764 429.271 247.989 430.944C250.602 434.415 254.186 437.032 258.287 438.466C262.388 439.899 266.822 440.084 271.029 438.996" fill="#407BFF"/>
<path d="M254.84 429.599C255.293 429.581 255.747 429.63 256.186 429.744C256.707 429.815 257.221 429.925 257.726 430.072C258.408 430.232 259.08 430.43 259.739 430.666C261.462 431.269 263.119 432.045 264.687 432.982C268.555 435.271 271.829 438.441 274.242 442.234C275.211 443.765 276.024 445.391 276.667 447.085C276.929 447.734 277.152 448.398 277.334 449.073C277.502 449.576 277.632 450.091 277.722 450.613C277.85 451.046 277.907 451.497 277.892 451.947C277.759 451.947 277.383 450.092 276.182 447.291C275.469 445.654 274.613 444.084 273.624 442.598C272.399 440.79 270.998 439.108 269.44 437.578C267.862 436.071 266.14 434.723 264.298 433.552C262.779 432.606 261.181 431.795 259.521 431.127C256.707 430.059 254.816 429.744 254.84 429.599Z" fill="#263238"/>
</svg>
