<svg width="21" height="21" viewBox="0 0 21 21" fill="none" xmlns="http://www.w3.org/2000/svg">
<rect width="21" height="21" fill="#B0B0B0"/>
<g id="2.1 Home New Ticket Etapa 3">
<rect width="1240" height="763" transform="translate(-923 -320)" fill="white"/>
<g id="Frame 25">
<rect x="-896" y="-49" width="1164" height="300" rx="24" fill="#F3F3F3"/>
<path id="Vector" d="M20.9993 4.22707C20.9993 3.99317 20.9029 3.7809 20.748 3.62745L17.3055 0.247418C17.1492 0.0946409 16.9344 0 16.6962 0C16.458 0 16.2431 0.0946409 16.0869 0.247418L1.629 14.4429C1.52847 14.5416 1.45274 14.6653 1.41143 14.8025L1.41005 14.8086L0.0330481 19.5406C0.012393 19.6096 0 19.6893 0 19.7718C0 20.2389 0.384873 20.6175 0.860628 20.6182C0.947379 20.6182 1.03138 20.6053 1.11055 20.5824L1.10436 20.5837L5.77791 19.2317C5.91974 19.1891 6.04161 19.1168 6.14075 19.0215L20.7446 4.82533C20.9022 4.67255 20.9993 4.46096 21 4.22639L20.9993 4.22707ZM5.08321 17.6715L2.11783 18.5286L3.00393 15.4839L13.2564 5.41751L15.4727 7.57194L5.08321 17.6715ZM16.6962 6.38217L14.4737 4.22166L16.6962 2.03951L18.9193 4.22166L16.6962 6.38217Z" fill="#A0A0A0"/>
</g>
</g>
</svg>
