<svg width="26" height="18" viewBox="0 0 26 18" fill="none" xmlns="http://www.w3.org/2000/svg">
<path fill-rule="evenodd" clip-rule="evenodd" d="M12.9942 0C9.35094 0 6.1612 2.21495 3.96939 4.26443C2.85589 5.30563 1.9578 6.34373 1.33815 7.1208C1.02772 7.51 0.785607 7.83573 0.619715 8.06627C0.53673 8.1816 0.472709 8.2732 0.428649 8.3372C0.406612 8.3692 0.389553 8.39427 0.377602 8.412L0.363511 8.43293L0.359361 8.4392L0 9.0176L0.358021 9.5588L0.359361 9.5608L0.363511 9.56707L0.377602 9.588C0.389553 9.60573 0.406612 9.6308 0.428649 9.6628C0.472709 9.7268 0.53673 9.8184 0.619715 9.93373C0.785607 10.1643 1.02772 10.49 1.33815 10.8792C1.9578 11.6563 2.85589 12.6944 3.96939 13.7356C6.1612 15.7851 9.35094 18 12.9942 18C16.6375 18 19.8271 15.7851 22.019 13.7356C23.1325 12.6944 24.0306 11.6563 24.6502 10.8792C24.9607 10.49 25.2027 10.1643 25.3687 9.93373C25.4516 9.8184 25.5157 9.7268 25.5597 9.6628C25.5817 9.6308 25.5988 9.60573 25.6108 9.588L25.6248 9.56707L25.629 9.5608L25.6308 9.55813L26 9L25.6303 8.4412L25.629 8.4392L25.6248 8.43293L25.6108 8.412C25.5988 8.39427 25.5817 8.3692 25.5597 8.3372C25.5157 8.2732 25.4516 8.1816 25.3687 8.06627C25.2027 7.83573 24.9607 7.51 24.6502 7.1208C24.0306 6.34373 23.1325 5.30563 22.019 4.26443C19.8271 2.21495 16.6375 0 12.9942 0ZM2.86915 9.6208C2.68085 9.38467 2.52056 9.1748 2.3905 9C2.52056 8.8252 2.68085 8.61533 2.86915 8.3792C3.4457 7.65627 4.2785 6.6944 5.3039 5.73557C7.38984 3.78505 10.1098 2 12.9942 2C15.8786 2 18.5986 3.78505 20.6844 5.73557C21.7098 6.6944 22.5427 7.65627 23.1192 8.3792C23.3076 8.61533 23.4678 8.8252 23.5979 9C23.4678 9.1748 23.3076 9.38467 23.1192 9.6208C22.5427 10.3437 21.7098 11.3056 20.6844 12.2644C18.5986 14.2149 15.8786 16 12.9942 16C10.1098 16 7.38984 14.2149 5.3039 12.2644C4.2785 11.3056 3.4457 10.3437 2.86915 9.6208ZM15.949 9C15.949 10.6568 14.6261 12 12.9941 12C11.3623 12 10.0393 10.6568 10.0393 9C10.0393 7.3432 11.3623 6 12.9941 6C14.6261 6 15.949 7.3432 15.949 9ZM17.9188 9C17.9188 11.7615 15.714 14 12.9941 14C10.2743 14 8.06944 11.7615 8.06944 9C8.06944 6.23857 10.2743 4 12.9941 4C15.714 4 17.9188 6.23857 17.9188 9Z" fill="#080341"/>
</svg>
