<svg width="33" height="33" viewBox="0 0 33 33" fill="none" xmlns="http://www.w3.org/2000/svg">
<path fill-rule="evenodd" clip-rule="evenodd" d="M16.5 3.3C9.20985 3.3 3.3 9.20985 3.3 16.5C3.3 23.7902 9.20984 29.7 16.5 29.7C23.7902 29.7 29.7 23.7902 29.7 16.5C29.7 9.20984 23.7902 3.3 16.5 3.3ZM0 16.5C0 7.38731 7.38731 0 16.5 0C25.6128 0 33 7.38731 33 16.5C33 25.6128 25.6128 33 16.5 33C7.38731 33 0 25.6128 0 16.5Z" fill="#0064A2"/>
<path fill-rule="evenodd" clip-rule="evenodd" d="M22.6167 12.0333C23.2611 12.6777 23.2611 13.7224 22.6167 14.3668L16.5401 20.4434C15.6067 21.3768 14.0933 21.3768 13.1599 20.4434L10.3833 17.6668C9.7389 17.0224 9.7389 15.9777 10.3833 15.3333C11.0276 14.689 12.0724 14.689 12.7167 15.3333L14.85 17.4666L20.2833 12.0333C20.9276 11.389 21.9724 11.389 22.6167 12.0333Z" fill="#0064A2"/>
</svg>
