<svg width="98" height="99" viewBox="0 0 98 99" fill="none" xmlns="http://www.w3.org/2000/svg">
<path fill-rule="evenodd" clip-rule="evenodd" d="M49.0005 7.35779C25.7144 7.35779 6.83729 26.2349 6.83729 49.5211C6.83729 72.8072 25.7144 91.6843 49.0005 91.6843C72.2867 91.6843 91.1638 72.8072 91.1638 49.5211C91.1638 26.2349 72.2867 7.35779 49.0005 7.35779ZM0 49.5211C0 22.4588 21.9383 0.520508 49.0005 0.520508C76.0628 0.520508 98.0011 22.4588 98.0011 49.5211C98.0011 76.5833 76.0628 98.5216 49.0005 98.5216C21.9383 98.5216 0 76.5833 0 49.5211Z" fill="#04BA00"/>
<path fill-rule="evenodd" clip-rule="evenodd" d="M67.3716 35.7083C68.7067 37.0434 68.7067 39.208 67.3716 40.543L44.5807 63.334C43.2456 64.669 41.081 64.669 39.746 63.334L30.6296 54.2176C29.2945 52.8825 29.2945 50.718 30.6296 49.3829C31.9647 48.0478 34.1292 48.0478 35.4643 49.3829L42.1633 56.0819L62.5369 35.7083C63.872 34.3733 66.0366 34.3733 67.3716 35.7083Z" fill="#04BA00"/>
</svg>
